<?xml version="1.0" encoding="utf-8" ?>
<svg xmlns="http://www.w3.org/2000/svg" xmlns:xlink="http://www.w3.org/1999/xlink" width="326" height="326">
	<path fill="#147AE3" transform="scale(0.318359 0.318359)" d="M282.928 164.988L736.842 164.918C741.664 172.921 745.497 181.965 749.724 190.319C761.563 213.719 772.642 237.481 784.455 260.879L908.215 508.088C901.559 522.634 894.21 536.897 887.061 551.205L849.624 625.973L736.535 853.023L283.214 853.064C280.612 848.871 278.635 844.136 276.481 839.695L264.05 814.043L226.087 737.852L145.186 576.141Q128.219 542.365 111.923 508.26L232.508 265.659L264.934 200.661C270.865 188.767 276.55 176.646 282.928 164.988ZM287 170.961L176.279 392.635L138.231 468.697C131.604 481.895 124.274 495.008 118.293 508.495C153.171 580.331 190.024 651.257 225.608 722.747L268.964 810.962C274.971 822.923 280.639 835.406 287.336 846.961L581.675 846.927L681.432 846.926C698.387 846.925 715.407 846.589 732.355 846.958L848.703 614.437C866.245 579.225 883.102 543.693 901.201 508.755C895.904 496.659 889.406 484.954 883.494 473.141L848.23 402.659L733.113 171.024L440.993 171.029C389.677 171.027 338.31 171.508 287 170.961Z"/>
	<path fill="#C22D4D" transform="scale(0.318359 0.318359)" d="M483.472 454.946C485.444 454.547 486.775 454.232 488.552 455.371C488.898 456.665 488.521 456.72 487.895 457.84C486.658 458.739 485.462 458.58 484.09 459.008L483.472 454.946Z"/>
	<path fill="#C22D4D" transform="scale(0.318359 0.318359)" d="M441.221 398.995C442.583 399.061 443.157 399.207 444.278 399.99C445.385 401.792 445.241 403.522 444.977 405.553C443.682 405.116 442.475 404.968 441.759 403.642C441.096 402.413 441.239 400.351 441.221 398.995Z"/>
	<path fill="#863764" transform="scale(0.318359 0.318359)" d="M510.715 246.243C512.251 246.664 513.064 247.143 513.758 248.61C514.408 249.987 514.639 251.346 514.147 252.797C513.898 252.742 513.648 252.695 513.402 252.63C511.665 252.169 510.956 251.623 510.077 250.07C509.888 248.449 510.092 247.753 510.715 246.243Z"/>
	<path fill="#863764" transform="scale(0.318359 0.318359)" d="M484.976 415.051C485.374 415.136 485.937 415.236 486.298 415.405C487.525 415.979 487.687 416.538 488.205 417.697C488.169 419.339 487.74 420.379 487.051 421.858C485.632 421.309 485.35 421.151 484.37 419.997C483.926 418.19 484.468 416.799 484.976 415.051Z"/>
	<path fill="#393A72" transform="scale(0.318359 0.318359)" d="M498.315 295.638C500.031 295.98 500.852 296.128 502.031 297.492C502.571 299.177 502.295 300.307 501.926 302.01C500.342 301.735 499.633 301.416 498.544 300.201C497.916 298.567 498.105 297.35 498.315 295.638Z"/>
	<path fill="#F1302F" transform="scale(0.318359 0.318359)" d="M451.043 389.806C451.52 389.833 452.291 389.861 452.738 389.97C454.001 390.277 454.301 390.694 455.023 391.672C455.25 393.319 454.989 394.46 454.559 396.055C453.01 395.408 451.891 395 450.829 393.62C450.403 392.1 450.624 391.26 451.043 389.806Z"/>
	<path fill="#393A72" transform="scale(0.318359 0.318359)" d="M533.424 351.654C534.87 352.397 535.861 352.964 536.701 354.418C536.757 356.309 536.439 356.759 535.595 358.396C534.045 357.856 533.222 357.502 532.35 356.071C532.081 354.352 532.747 353.179 533.424 351.654Z"/>
	<path fill="#393A72" transform="scale(0.318359 0.318359)" d="M501.049 420.93C502.309 421.959 503.908 423.821 504.04 425.519C504.162 427.083 503.492 427.616 502.583 428.755C501.415 428.169 500.245 426.838 499.892 425.565C499.399 423.785 500.165 422.38 501.049 420.93Z"/>
	<path fill="#F1302F" transform="scale(0.318359 0.318359)" d="M481.897 436.729C483.277 437.157 484.344 437.351 485.208 438.612C485.662 440.288 485.174 441.727 484.785 443.364C484.602 443.345 484.417 443.336 484.235 443.308C482.595 443.051 482.057 442.509 481.174 441.217C480.97 439.445 481.287 438.39 481.897 436.729Z"/>
	<path fill="#C22D4D" transform="scale(0.318359 0.318359)" d="M466.956 294.668C467.984 294.987 469.271 295.628 469.757 296.627C470.629 298.42 469.898 300.193 469.254 301.922C468.936 301.818 468.608 301.742 468.299 301.611C467.066 301.086 466.582 300.422 466.026 299.258C465.866 297.418 466.25 296.356 466.956 294.668Z"/>
	<path fill="#147AE3" transform="scale(0.318359 0.318359)" d="M639.35 335.316C640.915 335.765 641.832 336.002 642.914 337.322C643.56 339.063 643.225 340.661 643.018 342.47C641.804 342.06 640.586 341.608 639.776 340.555C638.527 338.931 638.94 337.135 639.35 335.316Z"/>
	<path fill="#F1302F" transform="scale(0.318359 0.318359)" d="M411.59 424.106L413.016 424.581C413.882 425.439 414.62 426.419 414.852 427.647C415.16 429.272 414.967 429.962 414.165 431.354C412.689 430.463 411.18 429.663 410.405 428.058C410.157 426.419 410.828 425.48 411.59 424.106Z"/>
	<path fill="#F1302F" transform="scale(0.318359 0.318359)" d="M439.338 349.804C440.867 350.576 441.975 351.094 442.977 352.513C443.232 354.317 443 354.643 442.298 356.26C441.857 356.3 440.895 356.409 440.475 356.349C439.377 356.193 439.117 355.435 438.613 354.597C438.527 352.804 438.819 351.516 439.338 349.804Z"/>
	<path fill="#393A72" transform="scale(0.318359 0.318359)" d="M489.428 442.649C489.576 442.686 489.726 442.712 489.87 442.761C491.21 443.216 492.356 444.297 492.781 445.665C493.292 447.312 492.815 448.362 492.14 449.85C491.648 449.749 491.197 449.679 490.729 449.47C489.685 449.004 488.768 448.172 488.497 447.027C488.116 445.412 488.768 444.077 489.428 442.649Z"/>
	<path fill="#147AE3" transform="scale(0.318359 0.318359)" d="M654.958 336.604C656.002 337.023 656.923 337.74 657.484 338.732C658.612 340.724 658.226 342.72 657.596 344.795C656.504 344.074 654.98 343.153 654.34 341.992C653.391 340.268 654.355 338.271 654.958 336.604Z"/>
	<path fill="#F1302F" transform="scale(0.318359 0.318359)" d="M412.122 445.713C412.659 445.77 413.481 445.795 414.007 445.984C415.324 446.459 415.464 446.79 416.1 447.95C416.091 449.779 415.377 451.081 414.6 452.707C413.225 452.248 412.617 451.747 411.838 450.54C411.459 448.708 411.683 447.517 412.122 445.713Z"/>
	<path fill="#147AE3" transform="scale(0.318359 0.318359)" d="M686.089 263.606C686.301 263.653 686.517 263.685 686.725 263.746C687.809 264.059 688.682 264.696 689.08 265.797C689.751 267.653 688.887 269.664 688.103 271.326C686.953 270.74 685.477 269.478 685.011 268.241C684.352 266.493 685.238 265.055 686.089 263.606Z"/>
	<path fill="#863764" transform="scale(0.318359 0.318359)" d="M484.215 407.128C485.699 407.425 486.725 407.543 487.814 408.701C488.527 410.385 488.062 412.167 487.812 413.918C487.416 413.967 486.865 414.047 486.477 414.032C485.119 413.976 484.953 413.723 484.075 412.787C483.521 410.91 483.956 409.029 484.215 407.128Z"/>
	<path fill="#F1302F" transform="scale(0.318359 0.318359)" d="M380.814 324.691C382.472 324.929 383.332 325.026 384.637 326.095C385.508 327.965 385.085 330.257 384.963 332.269C383.418 331.596 382.403 331.045 381.218 329.836C380.397 328.05 380.634 326.61 380.814 324.691Z"/>
	<path fill="#F1302F" transform="scale(0.318359 0.318359)" d="M285.947 309.651C287.17 310.282 288.461 311.212 288.952 312.564C289.63 314.436 288.851 316.587 288.254 318.368C287.045 317.822 285.752 316.662 285.234 315.422C284.399 313.422 285.17 311.514 285.947 309.651Z"/>
	<path fill="#863764" transform="scale(0.318359 0.318359)" d="M505.696 271.267C506.178 271.475 506.523 271.608 506.967 271.846C508.278 272.548 509.567 273.774 509.878 275.272C510.214 276.895 509.375 277.95 508.613 279.26C507.203 279.207 507.129 279.119 506.002 278.253C504.703 275.807 504.991 273.87 505.696 271.267Z"/>
	<path fill="#393A72" transform="scale(0.318359 0.318359)" d="M491.161 425.193C492.588 425.851 493.918 426.697 494.306 428.348C494.76 430.276 493.749 431.723 492.636 433.144Q492.133 432.925 491.64 432.685C490.484 432.116 489.431 431.403 489.145 430.04C488.749 428.153 490.112 426.585 491.161 425.193Z"/>
	<path fill="#F1302F" transform="scale(0.318359 0.318359)" d="M405.26 379.666C405.978 379.766 406.814 379.846 407.486 380.12C408.627 380.587 409.528 381.535 409.834 382.74C410.237 384.326 409.277 386.004 408.627 387.386C408.218 387.414 407.651 387.478 407.256 387.381C406.496 387.193 405.776 386.774 405.357 386.114C404.093 384.121 404.801 381.812 405.26 379.666Z"/>
	<path fill="#147AE3" transform="scale(0.318359 0.318359)" d="M561.005 431.584C562.66 432.03 564.157 432.689 564.886 434.381C565.743 436.367 564.929 438.121 564.151 439.95C563.269 440.047 563.399 440.129 562.557 439.848C561.415 439.467 560.691 438.843 560.29 437.685C559.531 435.491 560.152 433.623 561.005 431.584Z"/>
	<path fill="#F1302F" transform="scale(0.318359 0.318359)" d="M376.028 264.7C377.385 264.853 378.857 265.354 379.758 266.413C381.188 268.096 380.162 271.636 379.835 273.617C377.947 272.693 375.607 271.494 375.034 269.283C374.596 267.592 375.335 266.199 376.028 264.7Z"/>
	<path fill="#F1302F" transform="scale(0.318359 0.318359)" d="M374.547 412.465C375.48 412.417 376.267 412.57 377.179 412.757C377.806 413.304 378.326 413.554 378.574 414.389C379.257 416.688 377.988 418.44 376.826 420.305C375.969 420.325 376.167 420.409 375.307 420.013C374.177 419.491 373.482 418.841 373.191 417.598C372.707 415.526 373.534 414.159 374.547 412.465Z"/>
	<path fill="#F1302F" transform="scale(0.318359 0.318359)" d="M389.039 281.606C389.512 281.737 389.842 281.808 390.3 282.037C391.842 282.81 392.746 284.332 393.143 285.958C393.564 287.687 393.02 289.577 392.007 290.964C391.368 290.759 390.69 290.525 390.089 290.23C388.928 289.661 388.035 288.741 387.712 287.452C387.201 285.418 388.189 283.388 389.039 281.606Z"/>
	<path fill="#2F538E" transform="scale(0.318359 0.318359)" d="M500.64 429.369C501.306 429.689 501.872 430.015 502.407 430.544C503.302 431.429 503.813 432.604 503.667 433.879C503.425 435.995 502.17 436.997 500.569 438.148C499.891 437.773 499.256 437.394 498.694 436.847C497.82 435.996 497.314 434.899 497.449 433.657C497.672 431.605 499.13 430.524 500.64 429.369Z"/>
	<path fill="#F1302F" transform="scale(0.318359 0.318359)" d="M445.785 287.779C446.564 287.772 447.518 287.691 448.275 287.852C449.762 288.168 450.031 288.607 450.95 289.72C451.552 291.926 451.113 294.1 450.853 296.337C449.565 296.265 447.873 295.702 446.998 294.703C445.457 292.945 445.762 289.961 445.785 287.779Z"/>
	<path fill="#2E5F9D" transform="scale(0.318359 0.318359)" d="M493.764 452.831C494.98 452.265 496.126 451.644 497.52 452.047C498.657 452.375 499.329 452.994 499.748 454.096C500.27 455.468 499.582 456.607 498.987 457.795C498.959 457.853 498.931 457.911 498.903 457.969C497.474 458.639 496.682 459.004 495.05 458.747C493.9 457.916 493.548 457.695 493.203 456.23C492.948 455.142 493.352 453.823 493.764 452.831Z"/>
	<path fill="#C22D4D" transform="scale(0.318359 0.318359)" d="M440.661 415.922C441.91 419.963 442.468 424.25 443.19 428.414C442.28 427.987 441.333 427.563 440.485 427.022C439.198 426.201 438.1 424.71 437.825 423.212C437.278 420.24 439.028 418.162 440.661 415.922Z"/>
	<path fill="#F1302F" transform="scale(0.318359 0.318359)" d="M441.436 262.292C441.94 262.466 442.488 262.636 442.963 262.881C444.261 263.554 444.819 264.537 445.177 265.921C445.681 267.865 444.84 269.881 443.947 271.552C443.014 271.376 442.019 271.254 441.225 270.683C440.248 269.982 439.585 268.668 439.501 267.482C439.357 265.427 440.246 263.866 441.436 262.292Z"/>
	<path fill="#147AE3" transform="scale(0.318359 0.318359)" d="M554.74 390.719C554.915 390.719 555.091 390.711 555.266 390.719C556.943 390.789 557.756 391.099 558.923 392.307C559.941 394.693 559.238 396.63 558.395 398.95C557.539 399.044 556.816 399.157 555.99 398.812C554.825 398.327 554.223 397.455 553.826 396.297C553.157 394.347 553.827 392.439 554.74 390.719Z"/>
	<path fill="#147AE3" transform="scale(0.318359 0.318359)" d="M605.564 306.237C605.749 306.298 605.939 306.344 606.118 306.42C607.504 307.012 608.927 308.101 609.31 309.632C609.867 311.857 608.634 313.708 607.614 315.57C606.935 315.235 606.246 314.902 605.592 314.521C604.498 313.884 603.816 313.118 603.552 311.857C603.107 309.734 604.47 307.919 605.564 306.237Z"/>
	<path fill="#F1302F" transform="scale(0.318359 0.318359)" d="M454.635 354.786C456.222 355.607 457.898 356.494 458.522 358.311C459.254 360.442 458.151 362.325 457.241 364.185C456.451 364.128 455.873 364.025 455.151 363.649C454.052 363.076 453.27 362.212 453.018 360.971C452.556 358.696 453.589 356.717 454.635 354.786Z"/>
	<path fill="#F1302F" transform="scale(0.318359 0.318359)" d="M409.517 321.684C410.311 321.965 411.128 322.228 411.796 322.766C412.737 323.525 413.361 324.867 413.379 326.08C413.41 328.186 412.425 329.456 410.933 330.788C410.812 330.716 410.689 330.647 410.57 330.572C409.023 329.591 407.146 328.409 406.972 326.383C406.802 324.406 408.271 322.981 409.517 321.684Z"/>
	<path fill="#147AE3" transform="scale(0.318359 0.318359)" d="M548.447 425.771C549.405 425.866 550.422 425.902 551.294 426.363C552.283 426.887 553.055 427.922 553.222 429.035C553.518 431.01 552.545 432.646 551.426 434.16C550.669 434.097 549.621 434.061 548.936 433.703Q548.669 433.566 548.432 433.382Q548.194 433.198 547.995 432.973Q547.797 432.749 547.643 432.491Q547.489 432.233 547.386 431.951C546.594 429.724 547.588 427.808 548.447 425.771Z"/>
	<path fill="#147AE3" transform="scale(0.318359 0.318359)" d="M615.899 361.72C616.586 361.848 616.985 361.889 617.634 362.135C618.818 362.583 619.781 363.435 620.129 364.692C620.701 366.761 619.712 368.769 618.797 370.557C617.81 370.25 616.648 369.907 615.774 369.345C614.671 368.635 614.027 367.63 613.901 366.312C613.744 364.676 615.067 363.014 615.899 361.72Z"/>
	<path fill="#F1302F" transform="scale(0.318359 0.318359)" d="M436.394 440.513C437.29 440.926 437.948 441.052 438.547 441.877C439.361 442.999 439.814 444.381 439.557 445.778C439.17 447.882 438.451 448.526 436.801 449.698C435.922 449.317 435.083 449.025 434.491 448.221C433.58 446.982 433.334 445.18 433.696 443.712C434.121 441.984 434.924 441.402 436.394 440.513Z"/>
	<path fill="#147AE3" transform="scale(0.318359 0.318359)" d="M597.469 335.416C598.158 335.478 599.025 335.497 599.701 335.709C600.997 336.117 601.377 336.854 601.973 337.982C602.122 340.343 601.323 342.322 600.592 344.527C598.781 343.78 596.607 342.76 596.015 340.717C595.433 338.709 596.487 337.062 597.469 335.416Z"/>
	<path fill="#F1302F" transform="scale(0.318359 0.318359)" d="M466.493 344.149C467.018 344.315 467.377 344.407 467.888 344.678C469.474 345.519 470.754 346.938 471.077 348.745C471.445 350.796 470.701 352.035 469.492 353.539C469.352 353.533 469.211 353.536 469.071 353.521C467.328 353.338 466.446 352.846 465.343 351.507C464.384 348.726 465.338 346.73 466.493 344.149Z"/>
	<path fill="#F1302F" transform="scale(0.318359 0.318359)" d="M420.69 384.077C421.866 384.297 423.103 384.478 424.131 385.132C425.15 385.78 425.856 386.781 425.986 387.994C426.215 390.131 424.975 391.674 423.756 393.255C423.075 393.079 422.461 392.893 421.861 392.51C420.489 391.635 419.443 390.462 419.183 388.791C418.891 386.914 419.699 385.55 420.69 384.077Z"/>
	<path fill="#F1302F" transform="scale(0.318359 0.318359)" d="M362.147 390.666C362.645 390.827 362.667 390.817 363.216 391.096C364.802 391.899 366.42 393.126 366.712 394.987C367.05 397.143 365.714 398.781 364.586 400.456C363.865 400.324 363.201 400.196 362.559 399.817C361.216 399.023 360.268 397.882 360.082 396.281C359.81 393.935 360.888 392.498 362.147 390.666Z"/>
	<path fill="#F1302F" transform="scale(0.318359 0.318359)" d="M335.461 328.682C336.525 328.78 337.766 328.848 338.673 329.477C339.905 330.333 340.573 331.217 340.879 332.698C341.308 334.773 340.318 336.24 339.137 337.795C338.064 337.96 337.323 337.883 336.323 337.406C335.231 336.884 334.696 336.132 334.312 335.006C333.551 332.775 334.54 330.677 335.461 328.682Z"/>
	<path fill="#393A72" transform="scale(0.318359 0.318359)" d="M512.789 298.665C513.767 298.755 514.864 298.809 515.761 299.236C517.14 299.891 517.938 300.971 518.312 302.422C518.803 304.33 517.877 306.211 516.91 307.783C516.4 307.847 515.527 308.024 514.994 307.926C513.82 307.712 512.821 307.268 512.193 306.199C510.916 304.029 512.077 300.808 512.789 298.665Z"/>
	<path fill="#2E5F9D" transform="scale(0.318359 0.318359)" d="M554.779 311.957C555.254 311.922 555.729 311.876 556.205 311.866C557.991 311.828 558.528 312.222 559.769 313.37C560.896 315.938 560.181 318.348 559.337 320.904C558.201 321.039 557.248 320.972 556.227 320.386C555.006 319.686 554.274 318.66 553.904 317.324C553.323 315.23 553.813 313.829 554.779 311.957Z"/>
	<path fill="#147AE3" transform="scale(0.318359 0.318359)" d="M536.399 428.785C537.49 428.846 538.865 428.82 539.834 429.375C540.874 429.971 541.493 431.196 541.767 432.313C542.262 434.325 541.414 436.913 540.335 438.589C539.766 438.479 539.035 438.382 538.491 438.149C537.025 437.523 535.732 436.04 535.306 434.493C534.7 432.294 535.33 430.685 536.399 428.785Z"/>
	<path fill="#2F538E" transform="scale(0.318359 0.318359)" d="M569.085 309.773C569.669 309.859 570.432 309.925 570.994 310.148C572.236 310.64 573.268 311.397 573.734 312.699C574.59 315.091 573.276 317.74 572.319 319.876C571.513 319.678 570.755 319.501 570.028 319.085C568.604 318.27 567.684 317.183 567.3 315.553C566.799 313.43 568.014 311.482 569.085 309.773Z"/>
	<path fill="#2F538E" transform="scale(0.318359 0.318359)" d="M540.218 289.79C540.43 289.833 540.643 289.866 540.852 289.919C542.349 290.297 543.931 291.039 544.601 292.529C545.726 295.03 544.207 297.759 543.145 299.974C542.516 299.974 541.802 299.869 541.215 299.643C539.943 299.153 539.174 298.309 538.724 297.044C537.805 294.466 538.91 291.958 540.218 289.79Z"/>
	<path fill="#2E5F9D" transform="scale(0.318359 0.318359)" d="M522.047 375.331C522.626 375.525 523.205 375.71 523.752 375.986C525.271 376.755 526.662 378.038 526.974 379.785C527.369 382.002 526.242 383.496 525.09 385.246C524.301 385.148 523.17 385.098 522.454 384.71C521.287 384.078 520.564 383.153 520.191 381.892C519.494 379.542 520.769 377.188 522.047 375.331Z"/>
	<path fill="#F1302F" transform="scale(0.318359 0.318359)" d="M351.414 301.361C352.489 301.483 353.437 301.551 354.408 302.088C355.531 302.708 356.426 303.738 356.751 304.994C357.355 307.331 356.378 309.014 355.19 310.947C354.573 310.988 353.886 311.069 353.269 310.944C352.118 310.711 350.856 309.836 350.395 308.751C349.281 306.131 350.349 303.776 351.414 301.361Z"/>
	<path fill="#2F538E" transform="scale(0.318359 0.318359)" d="M590.011 279.842C590.998 279.908 591.89 280.073 592.862 280.25C594.047 281.129 594.812 282.113 594.987 283.606C595.264 285.967 594.455 287.862 593.002 289.656C592.324 289.554 591.599 289.474 590.948 289.24C589.728 288.8 588.645 287.796 588.238 286.553C587.429 284.076 588.72 281.856 590.011 279.842Z"/>
	<path fill="#2E5F9D" transform="scale(0.318359 0.318359)" d="M578.446 337.275C579.153 337.413 580.151 337.499 580.781 337.879C582.153 338.705 583.024 340.174 583.202 341.751C583.474 344.164 582.608 346.039 581.155 347.882C580.485 347.696 579.552 347.49 578.952 347.103C577.644 346.258 576.777 344.955 576.544 343.411C576.188 341.051 577.058 339.112 578.446 337.275Z"/>
	<path fill="#147AE3" transform="scale(0.318359 0.318359)" d="M621.737 271.732C622.414 271.891 623.161 272.03 623.799 272.33C624.951 272.87 625.892 273.968 626.188 275.206C626.778 277.679 625.518 279.848 624.185 281.798C622.934 281.532 621.789 281.334 620.782 280.48C619.674 279.539 619.193 278.552 619.099 277.091C618.952 274.798 620.346 273.346 621.737 271.732Z"/>
	<path fill="#F1302F" transform="scale(0.318359 0.318359)" d="M477.579 422.716C478.34 422.923 479.318 423.126 479.99 423.534C481.097 424.206 481.968 425.423 482.216 426.709C482.707 429.257 481.675 431.447 480.181 433.438C479.273 433.243 478.381 433.097 477.544 432.671C476.453 432.114 475.523 430.674 475.29 429.526C474.766 426.94 476.187 424.742 477.579 422.716Z"/>
	<path fill="#393A72" transform="scale(0.318359 0.318359)" d="M490.226 315.735C491.539 315.815 492.976 315.892 494.135 316.58C495.315 317.28 496.015 318.335 496.384 319.632C496.933 321.565 496.004 323.83 495.157 325.528C494.165 325.598 492.729 325.627 491.782 325.278C490.551 324.826 489.632 324.014 489.139 322.784C488.213 320.479 489.12 317.79 490.226 315.735Z"/>
	<path fill="#147AE3" transform="scale(0.318359 0.318359)" d="M343.968 477.004L353.107 477.05L353.063 484.063L343.957 484.1L343.968 477.004Z"/>
	<path fill="#F1302F" transform="scale(0.318359 0.318359)" d="M428.671 408.928C429.658 408.853 431.057 408.738 432.012 409C433.249 409.338 434.329 410.087 434.92 411.251C436.11 413.593 435.128 416.367 434.28 418.627C433.329 418.822 432.179 419.093 431.211 419.019C429.988 418.925 428.984 418.145 428.378 417.11C427.126 414.973 427.977 411.15 428.671 408.928Z"/>
	<path fill="#F1302F" transform="scale(0.318359 0.318359)" d="M405.144 303.654C406.155 303.955 407.115 304.344 408.013 304.907C409.353 305.748 410.478 306.955 410.72 308.573C411.15 311.456 409.56 313.319 408.008 315.519C406.978 315.791 406.166 315.77 405.199 315.215C404.261 314.677 403.71 313.73 403.405 312.714C402.37 309.269 403.491 306.6 405.144 303.654Z"/>
	<path fill="#F1302F" transform="scale(0.318359 0.318359)" d="M431.883 335.76C433.17 335.876 434.359 335.99 435.439 336.81Q435.641 336.963 435.825 337.137Q436.009 337.311 436.174 337.504Q436.338 337.696 436.481 337.906Q436.624 338.115 436.743 338.338Q436.862 338.562 436.957 338.797Q437.052 339.032 437.121 339.276Q437.189 339.519 437.232 339.769Q437.274 340.019 437.289 340.272C437.482 343.192 435.999 345.514 434.229 347.67C433.224 347.258 432.242 346.794 431.38 346.118C430.148 345.152 429.3 343.777 429.18 342.196C428.986 339.635 430.367 337.668 431.883 335.76Z"/>
	<path fill="#147AE3" transform="scale(0.318359 0.318359)" d="M279.952 476.96L290.097 477.007L290.044 483.986C286.66 483.818 283.235 483.94 279.846 483.962C279.827 481.631 279.913 479.291 279.952 476.96Z"/>
	<path fill="#F1302F" transform="scale(0.318359 0.318359)" d="M378.112 357.688C379.271 357.939 380.499 358.477 381.506 359.102C382.818 359.918 383.755 361.245 383.953 362.79C384.286 365.405 382.913 367.27 381.433 369.267C380.257 369.459 379.305 369.423 378.234 368.805C377.085 368.142 376.361 366.953 376.139 365.668C375.591 362.492 376.428 360.321 378.112 357.688Z"/>
	<path fill="#393A72" transform="scale(0.318359 0.318359)" d="M512.438 359.828C513.959 360.083 515.412 360.397 516.553 361.521C517.562 362.515 518.124 363.84 518.112 365.258C518.09 367.796 516.783 369.441 515.026 371.108C513.543 371.075 512.473 371.016 511.259 369.994C510.225 369.123 509.629 367.848 509.549 366.509C509.378 363.679 510.553 361.792 512.438 359.828Z"/>
	<path fill="#C22D4D" transform="scale(0.318359 0.318359)" d="M466.305 267.804C467.755 268.17 469.705 268.649 470.832 269.666C471.805 270.544 472.34 271.827 472.464 273.108C472.668 275.224 471.355 277.521 470.13 279.127C468.991 279.335 467.775 279.335 466.707 278.81C465.43 278.181 464.711 277.408 464.3 276.036C463.405 273.042 464.948 270.338 466.305 267.804Z"/>
	<path fill="#147AE3" transform="scale(0.318359 0.318359)" d="M595.118 412.781C596.716 412.837 598.144 412.972 599.385 414.123C600.584 415.236 601.171 416.739 601.18 418.35C601.197 421.066 600.358 422.322 598.524 424.186C597.133 424.158 595.874 424.126 594.678 423.272C593.556 422.472 592.988 421.378 592.771 420.049C592.338 417.396 593.725 414.899 595.118 412.781Z"/>
	<path fill="#F1302F" transform="scale(0.318359 0.318359)" d="M449.369 338.753C450.923 338.756 452.54 339.063 453.778 340.064C454.7 340.809 455.214 341.821 455.388 342.982C455.843 346.02 454.388 348.291 452.591 350.57C451.73 350.492 450.814 350.255 450.015 349.909C448.716 349.346 447.716 348.449 447.21 347.104C446.144 344.268 448.075 341.149 449.369 338.753Z"/>
	<path fill="#F1302F" transform="scale(0.318359 0.318359)" d="M311.044 425.354C311.895 425.572 312.637 425.873 313.405 426.293C314.924 427.123 316.528 428.343 316.844 430.163C317.36 433.13 315.298 435.044 313.56 437.096C313.179 437.238 312.946 437.357 312.503 437.341C311.319 437.298 309.971 436.795 309.217 435.86C308.188 434.583 307.994 432.879 308.048 431.3C308.144 428.518 309.081 427.234 311.044 425.354Z"/>
	<path fill="#F1302F" transform="scale(0.318359 0.318359)" d="M397.234 221.757C398.657 221.959 400.07 222.378 401.217 223.296C402.353 224.204 402.83 225.146 403.032 226.576C403.454 229.552 401.696 231.977 400.073 234.254C398.444 234.021 397.099 233.641 395.78 232.632C394.542 231.684 393.969 230.483 393.864 228.946C393.662 226.009 395.446 223.846 397.234 221.757Z"/>
	<path fill="#F1302F" transform="scale(0.318359 0.318359)" d="M469.434 394.846C471.428 394.899 473.236 395.241 474.648 396.74C475.757 397.916 476.286 399.394 476.175 401.018C475.998 403.617 474.729 405.045 472.791 406.628C471.261 406.831 469.877 406.65 468.678 405.564C467.661 404.644 467.147 403.307 467.021 401.968C466.743 399.014 467.521 397.045 469.434 394.846Z"/>
	<path fill="#147AE3" transform="scale(0.318359 0.318359)" d="M600.163 364.92C601.514 364.827 603.045 364.914 604.206 365.688C605.466 366.528 606.254 367.947 606.461 369.429C606.887 372.473 605.749 374.732 603.96 377.08C602.509 377.13 600.963 377.095 599.746 376.187C598.366 375.158 597.475 373.25 597.447 371.551C597.399 368.616 598.092 366.937 600.163 364.92Z"/>
	<path fill="#F1302F" transform="scale(0.318359 0.318359)" d="M346.059 380.813C347.894 381.613 349.553 382.453 350.681 384.183C351.564 385.538 351.954 387.133 351.575 388.731C350.965 391.301 349.378 392.356 347.196 393.613C345.615 393.015 344.493 392.33 343.353 391.055C342.251 389.824 341.697 388.349 341.908 386.69C342.264 383.888 343.994 382.527 346.059 380.813Z"/>
	<path fill="#863764" transform="scale(0.318359 0.318359)" d="M482.437 386.835C483.007 386.91 482.884 386.881 483.561 387.042C485.338 387.465 486.557 388.18 487.476 389.797C488.357 391.347 488.583 392.93 488.1 394.65C487.486 396.833 486.356 397.751 484.411 398.779C483.947 398.744 483.482 398.717 483.022 398.652C481.476 398.437 480.188 397.706 479.293 396.423C478.391 395.129 478.172 393.508 478.504 391.983C479.027 389.583 480.447 388.137 482.437 386.835Z"/>
	<path fill="#C22D4D" transform="scale(0.318359 0.318359)" d="M484.072 337.725C484.89 337.989 485.679 338.259 486.475 338.583C488.34 339.343 489.942 340.233 490.645 342.247C491.687 345.235 489.363 348.654 488.019 351.188C486.796 350.961 485.316 350.781 484.239 350.123C482.837 349.267 481.77 348.149 481.391 346.511C480.654 343.321 482.498 340.328 484.072 337.725Z"/>
	<path fill="#F1302F" transform="scale(0.318359 0.318359)" d="M294.501 337.868C296.238 337.935 297.978 338.043 299.326 339.282C300.543 340.4 301.118 341.979 301.134 343.611C301.165 346.734 299.724 349.162 297.676 351.383C296.19 351.098 294.938 350.896 293.747 349.914C292.261 348.687 291.339 346.961 291.277 345.022C291.185 342.119 292.519 339.861 294.501 337.868Z"/>
	<path fill="#2E5F9D" transform="scale(0.318359 0.318359)" d="M609.956 405.255C611.553 405.243 613.275 405.468 614.671 406.293C616.166 407.177 617.093 408.45 617.441 410.155C618.038 413.079 616.573 415.663 615.021 418.012C613.151 418.131 611.063 418.041 609.525 416.837C608.46 416.004 607.823 414.624 607.634 413.304C607.231 410.489 608.317 407.489 609.956 405.255Z"/>
	<path fill="#C22D4D" transform="scale(0.318359 0.318359)" d="M483.216 229.924C484.945 229.801 486.435 229.941 487.861 231.021C489.383 232.174 490.037 233.887 490.107 235.74C490.216 238.647 489.078 240.709 487.145 242.772C485.439 243.032 483.922 243.087 482.464 241.934C480.99 240.77 480.347 238.808 480.324 236.989C480.282 233.797 481.059 232.191 483.216 229.924Z"/>
	<path fill="#863764" transform="scale(0.318359 0.318359)" d="M508.175 208.788C509.504 208.839 510.833 209.273 511.977 209.949C513.684 210.958 514.836 212.222 515.257 214.21C515.899 217.246 514.52 219.723 512.951 222.207C511.191 222.398 509.394 222.629 507.826 221.576C506.452 220.653 505.659 219.073 505.466 217.459C505.078 214.206 506.323 211.357 508.175 208.788Z"/>
	<path fill="#393A72" transform="scale(0.318359 0.318359)" d="M507.078 382.92C509.348 382.846 511.293 382.69 513.009 384.437C514.187 385.637 514.707 387.256 514.636 388.92C514.521 391.618 513.22 393.777 511.253 395.527C509.513 395.799 508.043 395.913 506.492 394.835C505.231 393.958 504.48 392.579 504.277 391.073C503.814 387.645 505.037 385.521 507.078 382.92Z"/>
	<path fill="#147AE3" transform="scale(0.318359 0.318359)" d="M577.362 423.476C579.153 423.608 580.546 423.716 581.769 425.232C582.967 426.716 583.389 428.526 583.155 430.403C582.741 433.715 581.324 435.68 578.687 437.607C576.738 436.841 575.039 435.817 573.92 433.982C572.918 432.339 572.596 430.379 573.101 428.513C573.738 426.157 575.37 424.721 577.362 423.476Z"/>
	<path fill="#393A72" transform="scale(0.318359 0.318359)" d="M493.643 366.904C495.532 366.963 496.847 367.093 498.313 368.468C499.458 369.543 499.987 371.33 500.011 372.859C500.065 376.35 498.754 378.755 496.348 381.145C494.46 381.053 493.096 380.774 491.753 379.29C490.378 377.77 489.909 375.739 490.048 373.733C490.261 370.672 491.395 368.895 493.643 366.904Z"/>
	<path fill="#393A72" transform="scale(0.318359 0.318359)" d="M574.315 231.81C575.769 232.104 577.377 232.612 578.544 233.572C579.971 234.746 580.839 236.568 580.98 238.394C581.23 241.616 579.871 243.696 577.787 245.98C575.776 246.126 574.372 246.232 572.733 244.817C571.292 243.573 570.726 241.316 570.79 239.487C570.917 235.888 571.758 234.273 574.315 231.81Z"/>
	<path fill="#147AE3" transform="scale(0.318359 0.318359)" d="M659.02 418.423C659.286 418.471 659.553 418.508 659.817 418.567C661.49 418.947 662.479 419.659 663.33 421.126C664.482 423.113 664.717 425.67 663.999 427.844C663.421 429.591 662.236 431.383 660.567 432.212C659.536 432.207 658.182 432.313 657.2 431.999C656.086 431.644 655.02 430.343 654.485 429.325C653.564 427.573 653.515 425.623 654.104 423.757C654.971 421.013 656.514 419.68 659.02 418.423Z"/>
	<path fill="#147AE3" transform="scale(0.318359 0.318359)" d="M638.963 369.8C640.52 370.388 642.275 370.923 643.608 371.944C645.067 373.062 646.233 374.814 646.333 376.684C646.485 379.534 644.818 381.616 643.031 383.622C641.406 384.08 639.69 384.51 638.108 383.673C636.724 382.941 636.035 381.446 635.81 379.961C635.223 376.075 636.609 372.766 638.963 369.8Z"/>
	<path fill="#147AE3" transform="scale(0.318359 0.318359)" d="M619.92 340.506C621.551 340.529 622.831 340.513 624.203 341.552C625.698 342.683 626.381 344.59 626.429 346.403C626.527 350.037 624.987 352.824 622.481 355.303C620.594 354.746 618.817 354.144 617.536 352.561C616.291 351.022 615.632 348.996 615.859 347.022C616.208 343.992 617.626 342.36 619.92 340.506Z"/>
	<path fill="#393A72" transform="scale(0.318359 0.318359)" d="M534.627 310.859C536.37 310.687 538.283 310.975 539.65 312.169C540.849 313.218 541.474 314.557 541.58 316.13C541.853 320.195 540.038 322.777 537.409 325.628C535.496 325.02 534.136 324.369 532.813 322.806C531.306 321.024 530.506 318.903 530.825 316.558C531.201 313.792 532.487 312.506 534.627 310.859Z"/>
	<path fill="#F1302F" transform="scale(0.318359 0.318359)" d="M281.709 269.464C284.142 269.597 286.252 270.147 287.868 272.085C289.141 273.612 289.634 275.511 289.394 277.476C289.028 280.466 287.583 282.236 285.335 284.094C283.196 283.931 281.385 283.599 279.795 282.04C278.522 280.793 277.976 279.182 277.971 277.42C277.962 274.308 279.641 271.651 281.709 269.464Z"/>
	<path fill="#C22D4D" transform="scale(0.318359 0.318359)" d="M483.851 273.515C485.742 273.904 487.707 274.386 489.146 275.756C490.592 277.134 491.274 278.961 491.186 280.945C491.026 284.585 488.992 286.879 486.401 289.183C484.607 288.985 483.118 288.441 481.774 287.204C480.288 285.837 479.709 283.867 479.744 281.894C479.806 278.368 481.386 275.884 483.851 273.515Z"/>
	<path fill="#147AE3" transform="scale(0.318359 0.318359)" d="M676.809 336.838C678.923 337.005 680.681 337.59 682.171 339.157C683.618 340.677 684.042 342.502 683.907 344.556C683.693 347.795 681.957 349.953 679.616 352.031C677.71 351.782 675.364 351.17 674.033 349.696C672.663 348.177 672.1 345.996 672.365 343.989C672.831 340.452 674.049 338.972 676.809 336.838Z"/>
	<path fill="#147AE3" transform="scale(0.318359 0.318359)" d="M548.96 332.476C550.99 332.462 552.548 332.79 554.063 334.199C555.579 335.609 556.21 337.562 556.237 339.589C556.285 343.138 554.94 345.764 552.514 348.25C550.325 348.021 548.371 347.064 546.914 345.395C545.444 343.713 544.865 341.462 545.084 339.263C545.379 336.295 546.75 334.366 548.96 332.476Z"/>
	<path fill="#F1302F" transform="scale(0.318359 0.318359)" d="M399.042 443.425C401.237 443.921 403.211 444.575 404.711 446.353Q404.983 446.68 405.219 447.034Q405.455 447.389 405.651 447.766Q405.848 448.144 406.003 448.54Q406.157 448.936 406.269 449.347Q406.38 449.758 406.447 450.178Q406.514 450.598 406.535 451.023Q406.556 451.448 406.532 451.873Q406.508 452.298 406.438 452.718C405.973 455.643 404.401 457.633 402.095 459.367C400.27 458.913 398.656 458.058 397.234 456.811C395.659 455.429 394.781 453.735 394.735 451.626C394.654 447.99 396.73 445.888 399.042 443.425Z"/>
	<path fill="#147AE3" transform="scale(0.318359 0.318359)" d="M626.75 295.469C627.334 295.484 627.652 295.479 628.263 295.561C631.295 295.972 632.483 297.606 634.292 299.885L634.274 305.855C633.097 308.049 631.98 309.806 630.284 311.66C629.049 311.495 627.642 311.209 626.53 310.629C623.975 309.296 623.346 306.18 622.578 303.658C623.641 300.689 624.546 297.795 626.75 295.469Z"/>
	<path fill="#393A72" transform="scale(0.318359 0.318359)" d="M530.138 256.36C532.349 256.428 534.143 256.952 535.671 258.64C536.969 260.075 537.245 262.269 537.012 264.109C536.543 267.818 534.847 269.874 531.978 272.08C529.691 271.63 527.793 270.675 526.468 268.687C525.218 266.811 524.942 264.406 525.509 262.248C526.265 259.373 527.672 257.891 530.138 256.36Z"/>
	<path fill="#F1302F" transform="scale(0.318359 0.318359)" d="M356.004 249.403C358.025 249.759 360.057 250.455 361.419 252.066C362.927 253.849 363.587 256.037 363.349 258.355C363.014 261.6 361.49 263.588 358.969 265.508C356.75 265.346 354.693 264.733 353.208 262.98C351.117 260.513 351.781 256.35 351.995 253.392C353.211 251.888 354.551 250.676 356.004 249.403Z"/>
	<path fill="#F1302F" transform="scale(0.318359 0.318359)" d="M394.197 403.497C396.105 403.75 397.988 404.072 399.44 405.42C401.008 406.875 401.702 409.5 401.526 411.572C401.231 415.032 399.904 417.146 397.285 419.284C396.504 419.365 395.527 419.526 394.753 419.403C393.423 419.19 392.18 418.42 391.345 417.369C389.826 415.456 389.58 413.085 389.847 410.733C390.231 407.337 391.547 405.537 394.197 403.497Z"/>
	<path fill="#F1302F" transform="scale(0.318359 0.318359)" d="M410.302 255.798C412.301 256.08 414.578 256.819 416.009 258.302C417.376 259.719 418.014 261.482 417.961 263.446C417.864 266.996 415.875 269.798 413.454 272.217C413.253 272.253 413.055 272.307 412.851 272.324C411.281 272.453 409.256 271.34 408.155 270.229C406.448 268.508 406.079 266.098 406.158 263.78C406.28 260.173 407.784 258.243 410.302 255.798Z"/>
	<path fill="#393A72" transform="scale(0.318359 0.318359)" d="M496.829 403.312C498.695 403.264 500.586 403.824 502.198 404.77C503.841 405.736 504.867 407.452 505.194 409.302C505.941 413.528 504.302 415.988 501.923 419.194L500.732 419.875C499.218 419.89 498.264 419.934 496.991 418.956C495.272 417.636 494.562 415.106 494.238 413.084C493.582 408.988 494.373 406.597 496.829 403.312Z"/>
	<path fill="#147AE3" transform="scale(0.318359 0.318359)" d="M584.757 355.798C586.76 355.796 588.666 356.308 590.185 357.659C591.986 359.261 592.788 361.438 592.832 363.814C592.899 367.476 591.549 369.343 589.071 371.874C588.764 371.919 588.458 371.969 588.15 372.009C586.374 372.24 584.708 371.865 583.326 370.697C581.733 369.351 581.122 367.281 581.021 365.268C580.808 361.041 581.997 358.872 584.757 355.798Z"/>
	<path fill="#147AE3" transform="scale(0.318359 0.318359)" d="M555.319 407.883C557.344 407.874 559.439 408.761 560.915 410.136C562.386 411.506 563.003 413.391 563.016 415.364C563.041 419.014 561.241 421.454 558.823 423.985C558.659 423.991 558.495 424 558.33 424.005C555.939 424.075 554.046 423.61 552.333 421.828C550.925 420.363 550.46 418.408 550.58 416.426C550.805 412.705 552.63 410.269 555.319 407.883Z"/>
	<path fill="#F1302F" transform="scale(0.318359 0.318359)" d="M379.361 296.512C381.185 296.779 382.826 297.064 384.187 298.441C385.757 300.029 386.331 302.354 386.199 304.535C385.981 308.138 384.087 311.201 381.376 313.459C379.586 312.789 377.846 311.971 376.097 311.201C375.08 309.454 374.352 307.543 373.563 305.685C374.036 303.816 374.447 301.783 375.284 300.041C376.257 298.013 377.278 297.256 379.361 296.512Z"/>
	<path fill="#F1302F" transform="scale(0.318359 0.318359)" d="M416.932 399.443C419.023 399.757 421.037 400.245 422.47 401.928C423.99 403.713 424.45 406.073 424.138 408.354C423.603 412.272 421.847 414.27 418.84 416.632C418.692 416.61 418.545 416.59 418.398 416.566C416.327 416.221 414.66 415.49 413.458 413.691C411.791 411.196 411.574 408.153 412.298 405.299C413.043 402.368 414.428 400.994 416.932 399.443Z"/>
	<path fill="#F1302F" transform="scale(0.318359 0.318359)" d="M348.488 409.388C348.629 409.398 348.771 409.401 348.911 409.418C351.203 409.696 353.574 410.872 354.968 412.759C356.345 414.623 356.616 416.899 356.168 419.13C355.427 422.824 353.344 424.677 350.315 426.677C349.639 426.6 348.944 426.543 348.288 426.343C345.305 425.43 343.931 422.36 342.569 419.834C342.78 418.306 343.036 416.712 343.474 415.232C344.317 412.386 345.982 410.822 348.488 409.388Z"/>
	<path fill="#F1302F" transform="scale(0.318359 0.318359)" d="M469.024 366.466C469.614 366.573 470.189 366.711 470.763 366.888C473.089 367.602 474.518 368.766 475.562 371.002Q475.77 371.451 475.932 371.919Q476.094 372.387 476.209 372.868Q476.324 373.35 476.391 373.84Q476.458 374.331 476.477 374.825Q476.495 375.32 476.465 375.814Q476.434 376.308 476.355 376.797Q476.276 377.286 476.149 377.764Q476.022 378.242 475.848 378.706C474.867 381.353 473.171 383.031 470.662 384.239C467.754 383.298 465.407 382.094 463.895 379.272C462.796 377.222 462.411 374.818 463.124 372.573C464.125 369.421 466.167 367.854 469.024 366.466Z"/>
	<path fill="#F1302F" transform="scale(0.318359 0.318359)" d="M349.422 334.842C350.072 334.85 349.965 334.834 350.796 334.942C352.795 335.203 354.798 336.447 355.965 338.084C357.654 340.453 357.753 343.47 357.223 346.235C356.548 349.751 354.726 351 351.941 352.928C349.855 352.591 347.839 351.72 346.358 350.17C344.925 348.67 344.271 346.729 344.309 344.671C344.388 340.429 346.424 337.618 349.422 334.842Z"/>
	<path fill="#F1302F" transform="scale(0.318359 0.318359)" d="M454.383 224.83C454.702 224.866 455.026 224.876 455.342 224.937C457.416 225.344 459.751 226.705 460.928 228.48C462.418 230.726 462.545 233.457 461.975 236.021C461.136 239.792 459.455 241.194 456.26 243.15C454.148 242.925 452.203 242.251 450.772 240.598C448.181 237.604 448.606 233.185 448.784 229.522C450.485 227.705 452.391 226.3 454.383 224.83Z"/>
	<path fill="#F1302F" transform="scale(0.318359 0.318359)" d="M393.935 341.501C394.158 341.513 394.382 341.517 394.605 341.537C396.973 341.755 398.731 342.679 400.252 344.51C402.017 346.634 402.543 349.32 402.197 352.019C401.71 355.819 399.898 358.132 396.914 360.394C395.861 360.302 394.772 360.225 393.738 359.994C391.787 359.56 390.084 357.943 389.094 356.27C387.558 353.673 387.317 350.52 388.232 347.661C389.231 344.541 391.074 342.906 393.935 341.501Z"/>
	<path fill="#2F538E" transform="scale(0.318359 0.318359)" d="M560.579 279.51C563.556 279.722 565.955 280.313 567.941 282.698C569.683 284.79 570.306 287.584 570.037 290.259C569.606 294.524 567.388 297.047 564.202 299.687C563.194 299.854 561.751 300.068 560.749 299.863C559.08 299.521 557.601 298.201 556.656 296.823C554.719 293.996 554.528 290.004 555.238 286.75C556.005 283.232 557.65 281.444 560.579 279.51Z"/>
	<path fill="#147AE3" transform="scale(0.318359 0.318359)" d="M570.934 378.877C571.153 378.875 571.372 378.86 571.59 378.872C574.955 379.066 577.242 381.818 579.351 384.136C579.895 387.385 579.975 390.536 580.011 393.824C578.202 396.111 576.277 398.097 574.173 400.111C573.838 400.118 573.503 400.144 573.168 400.131C570.849 400.042 568.462 398.404 567.072 396.616C565.03 393.992 564.554 390.06 565.122 386.868C565.834 382.864 567.659 381.067 570.934 378.877Z"/>
	<path fill="#F1302F" transform="scale(0.318359 0.318359)" d="M431.435 299.555C432.519 299.54 433.631 299.558 434.697 299.774C436.71 300.183 438.404 301.817 439.471 303.502C441.341 306.455 441.772 310.247 440.911 313.607C440.085 316.83 438.535 318.677 435.727 320.35C434.596 320.452 433.363 320.603 432.239 320.4C430.103 320.016 428.148 318.409 427.013 316.611C425.347 313.97 425.065 310.472 425.724 307.474C426.538 303.767 428.31 301.582 431.435 299.555Z"/>
	<path fill="#F1302F" transform="scale(0.318359 0.318359)" d="M322.22 355.568C323.777 355.883 325.532 356.405 326.904 357.217C330.568 359.384 331.541 363.208 332.488 367.044Q332.242 367.775 331.98 368.501C330.681 372.077 329.376 374.651 325.844 376.318C324.617 376.446 323.216 376.673 321.997 376.442C320.146 376.093 318.384 374.647 317.331 373.139C315.585 370.636 315.26 367.183 315.853 364.254C316.699 360.067 318.772 357.89 322.22 355.568Z"/>
	<path fill="#F1302F" transform="scale(0.318359 0.318359)" d="M465.253 308.583C465.616 308.588 465.979 308.59 466.341 308.599C469.26 308.677 471.609 309.481 473.599 311.713C475.447 313.784 476.245 316.5 476.042 319.253C475.747 323.244 473.692 326.468 470.704 328.999C469.356 329.288 468.134 329.57 466.761 329.232C464.461 328.665 462.65 327.168 461.478 325.133C459.627 321.922 459.392 317.713 460.53 314.223C461.43 311.459 462.705 309.92 465.253 308.583Z"/>
	<path fill="#147AE3" transform="scale(0.318359 0.318359)" d="M589.012 307.482C589.964 307.567 590.889 307.684 591.822 307.904C595.178 308.696 596.688 311.203 598.322 313.999C598.206 316.308 598.435 318.69 598.06 320.978C597.41 324.945 594.852 327.285 591.676 329.45C590.496 329.45 589.236 329.354 588.116 328.966C585.633 328.105 583.74 326.254 582.731 323.842C581.27 320.352 581.527 316.183 583.107 312.779C584.424 309.941 586.16 308.607 589.012 307.482Z"/>
	<path fill="#147AE3" transform="scale(0.318359 0.318359)" d="M344.01 491.713L352.071 491.815C351.865 501.832 353.143 518.19 351.883 527.181C349.262 527.167 346.633 527.271 344.012 527.329L344.01 491.713Z"/>
	<path fill="#147AE3" transform="scale(0.318359 0.318359)" d="M280.967 491.901L289.106 491.925C288.9 503.62 289.094 515.352 289.103 527.051L280.984 527.068L280.967 491.901Z"/>
	<path fill="#F1302F" transform="scale(0.318359 0.318359)" d="M384.117 375.534C386.635 375.258 388.924 375.24 391.151 376.637C394.607 378.805 395.458 382.908 396.292 386.596C394.952 391.349 393.557 393.809 389.622 396.832C388.789 397.1 388.069 397.354 387.181 397.261C384.969 397.031 382.648 396.031 381.224 394.29C379.246 391.873 378.594 388.19 378.889 385.153C379.301 380.92 380.878 378.21 384.117 375.534Z"/>
	<path fill="#F1302F" transform="scale(0.318359 0.318359)" d="M322.747 286.872C324.823 286.961 327.17 287.36 328.964 288.464C332.44 290.603 333.321 294.654 334.303 298.311C332.912 303.758 331.498 306.562 327.013 310.054C326.657 310.052 326.3 310.05 325.944 310.03C323.199 309.882 320.373 308.652 318.563 306.548C316.441 304.081 315.742 300.42 316.169 297.257C316.789 292.665 319.227 289.678 322.747 286.872Z"/>
	<path fill="#F1302F" transform="scale(0.318359 0.318359)" d="M411.53 344.68C412.664 344.971 413.921 345.329 414.834 346.087C416.356 347.35 416.38 348.971 416.372 350.769L415.741 351.357L416.369 351.693L416.101 352.368C419.249 353.184 421.916 353.76 424.024 356.47C425.947 358.943 426.766 361.912 426.247 365.016C425.556 369.154 423.031 371.848 419.734 374.183C419.219 374.422 418.858 374.611 418.289 374.769C416.694 375.21 415.26 375.055 413.802 374.277C410.164 372.337 408.763 367.687 407.629 364.015C408.637 360.501 409.479 356.998 412.079 354.278C412.198 354.153 412.323 354.032 412.445 353.909L412.356 353.01C411.454 352.134 410.392 351.279 409.92 350.086C409.266 348.435 410.738 346.054 411.53 344.68Z"/>
	<path fill="#147AE3" transform="scale(0.318359 0.318359)" d="M561.909 350.471C563.248 350.664 564.648 350.88 565.894 351.425C569.069 352.815 571.437 355.563 572.615 358.791C573.967 362.497 573.637 366.713 571.972 370.263C570.248 373.939 568.081 375.793 564.33 377.158C563.321 377.083 562.284 377.016 561.294 376.805C558.679 376.248 556.261 374.272 554.837 372.061C552.779 368.866 552.408 364.675 553.365 361.052C554.636 356.239 557.702 352.935 561.909 350.471Z"/>
	<path fill="#393A72" transform="scale(0.318359 0.318359)" d="M514.598 324.619C515.887 324.546 517.224 324.443 518.512 324.527C521.267 324.705 524.215 326.919 525.795 329.074C527.836 331.858 528.68 335.567 528.158 338.968C527.424 343.746 524.508 347.311 520.736 350.127C519.094 350.407 517.406 350.649 515.738 350.434C513.175 350.103 510.812 348.438 509.368 346.337C507.05 342.964 506.601 338.145 507.494 334.229C508.535 329.667 510.665 326.988 514.598 324.619Z"/>
	<path fill="#F1302F" transform="scale(0.318359 0.318359)" d="M438.996 364.524C440.39 364.6 441.755 364.744 443.109 365.107C445.789 365.824 448.096 367.862 449.44 370.255C451.454 373.84 451.618 378.513 450.451 382.396C448.918 387.498 445.962 390.102 441.414 392.424C441.274 392.383 441.133 392.344 440.993 392.301C436.882 391.043 433.511 388.732 431.543 384.828C429.67 381.11 429.383 376.457 430.891 372.569C432.415 368.642 435.249 366.242 438.996 364.524Z"/>
	<path fill="#147AE3" transform="scale(0.318359 0.318359)" d="M655.964 473.911L664.157 473.958C663.793 487.1 663.779 500.552 664.215 513.688C664.898 514.769 665.612 516.06 666.611 516.878C668.712 518.597 672.456 517.988 674.999 517.911L675.104 524.266C671.047 523.892 666.814 524.054 662.728 523.911C661.605 523.238 660.43 522.448 659.527 521.49C657.587 519.432 656.595 516.237 656.151 513.504C655.353 508.586 655.758 503.315 655.788 498.332L655.964 473.911Z"/>
	<path fill="#2E5F9D" transform="scale(0.318359 0.318359)" d="M502.73 457.161C502.762 455.856 502.866 456.442 502.425 455.215C501.695 453.187 501.128 451.121 500.538 449.049C499.182 448.426 497.94 448.046 497.212 446.65C497.148 445.079 498.015 443.518 499.051 442.364C499.78 441.553 499.75 441.505 500.88 441.461C502.318 442.765 502.827 445.451 503.714 447.187L504.811 447.249C505.442 446.804 505.983 446.405 506.511 445.835C506.643 445.693 506.767 445.544 506.895 445.398C510.707 446.679 514.448 447.391 518.459 447.567C520.295 450.158 522.087 452.735 524.552 454.77C522.529 457.221 520.437 459.145 517.993 461.165C519.335 463.393 520.643 465.565 521.671 467.963C518.949 469.968 515.88 476.311 514.677 479.578L514.061 479.043L512.737 477.407C511.881 477.131 511.119 476.875 510.328 476.433C509.553 476 509.718 475.905 509.497 475.11C510.216 473.939 510.784 473.162 510.716 471.724C510.035 470.624 509.692 470.244 508.498 469.73C506.065 469.662 503.864 470.857 501.659 471.781C503.001 469.53 505.14 466.86 505.375 464.242C504.366 462.314 503.148 459.833 502.783 457.672C502.754 457.503 502.748 457.331 502.73 457.161Z"/>
	<path fill="#2F538E" transform="scale(0.318359 0.318359)" d="M502.73 457.161C502.748 457.331 502.754 457.503 502.783 457.672C503.148 459.833 504.366 462.314 505.375 464.242C505.14 466.86 503.001 469.53 501.659 471.781C503.864 470.857 506.065 469.662 508.498 469.73C509.692 470.244 510.035 470.624 510.716 471.724C510.784 473.162 510.216 473.939 509.497 475.11C509.718 475.905 509.553 476 510.328 476.433C511.119 476.875 511.881 477.131 512.737 477.407L514.061 479.043L513.493 479.361C506.518 483.346 501.056 488.915 492.974 490.752C490.505 488.172 489.995 486.801 489.579 483.314L489.005 476.379C489 473.94 488.014 470.57 489.019 468.355C489.395 467.49 489.751 466.617 490.12 465.749C490.911 463.886 490.962 462.882 490.65 460.863C491.192 460.683 491.734 460.504 492.29 460.371C493.777 460.015 494.802 460.781 496.017 461.521L496.431 461.777C497.705 460.934 498.216 459.329 498.903 457.969C500.13 457.587 501.468 457.411 502.73 457.161Z"/>
	<path fill="#2E5F9D" transform="scale(0.318359 0.318359)" d="M489.005 476.379C489 473.94 488.014 470.57 489.019 468.355C489.17 468.473 489.306 468.613 489.47 468.711C491.155 469.711 493.2 468.826 494.729 470.121C495.033 471.182 495.35 471.821 494.706 472.865C493.576 474.699 490.934 475.671 489.005 476.379Z"/>
	<path fill="#147AE3" transform="scale(0.318359 0.318359)" d="M296.792 492.009L305.682 491.724C308.518 500.528 312.963 509.497 316.967 517.836C321.555 509.68 324.644 500.381 328.338 491.767L336.59 491.915C335.623 494.444 334.411 496.907 333.297 499.376Q327.408 513.388 320.732 527.043L313.241 526.985C310.546 522.766 308.733 517.642 306.665 513.073Q301.856 502.481 296.792 492.009Z"/>
	<path fill="#147AE3" transform="scale(0.318359 0.318359)" d="M662.255 266.919C663.645 266.969 665.393 267.308 666.676 267.838C670.189 269.291 672.725 272.806 673.943 276.291Q674.239 277.155 674.448 278.044Q674.657 278.934 674.778 279.839Q674.899 280.744 674.931 281.657Q674.962 282.57 674.904 283.482Q674.845 284.393 674.697 285.295Q674.55 286.196 674.314 287.079Q674.078 287.961 673.757 288.816Q673.436 289.672 673.032 290.491C671.234 294.074 668.774 296.206 664.97 297.41C663.514 297.473 661.957 297.399 660.553 296.985Q660.003 296.827 659.473 296.613Q658.942 296.399 658.436 296.132Q657.93 295.865 657.454 295.547Q656.978 295.23 656.537 294.865Q656.096 294.501 655.695 294.093Q655.294 293.685 654.936 293.239Q654.579 292.792 654.269 292.311Q653.959 291.83 653.7 291.32C651.564 287.179 651.464 281.404 652.858 277.02C654.503 271.847 657.68 269.346 662.255 266.919Z"/>
	<path fill="#147AE3" transform="scale(0.318359 0.318359)" d="M694.888 488.152C702.345 487.443 706.636 488.622 712.758 492.976C711.949 494.844 711.259 496.779 710.52 498.677C708.199 497.087 705.685 495.855 703.193 494.561Q698.873 494.903 694.542 495.05C691.978 496.738 689.686 498.487 688.291 501.29C686.889 504.106 686.626 507.241 687.69 510.218C688.718 513.092 690.909 515.32 693.672 516.579C698.29 518.683 702.357 517.645 706.865 516.04C707.995 515.503 708.613 515.235 709.872 515.334C711.608 516.245 712.455 518.133 713.443 519.755C710.961 521.451 708.455 522.777 705.524 523.507C699.516 525.004 691.503 524.508 686.242 521.063C682.484 518.604 680.025 514.567 679.136 510.201C678.155 505.379 679.105 500.145 681.867 496.053C684.957 491.475 689.58 489.116 694.888 488.152Z"/>
	<path fill="#147AE3" transform="scale(0.318359 0.318359)" d="M785.276 488.083C786.593 488.007 787.933 487.912 789.253 487.938C793.164 488.014 797.157 488.924 799.926 491.883C804.976 497.281 803.066 516.57 803.043 524.025L796.125 524.099C795.889 517.11 797.745 505.538 795.089 499.487C793.542 495.961 791.012 495.028 787.678 493.645L782.03 495.366C779.266 496.804 777.762 498.517 775.981 501.058L776.023 524.001L768.142 524.028L767.962 488.996C769.794 488.884 772.125 488.425 773.787 489.31C774.816 490.792 774.588 492.536 774.604 494.267C777.994 491.464 781.099 489.543 785.276 488.083Z"/>
	<path fill="#147AE3" transform="scale(0.318359 0.318359)" d="M266.414 476.965L275.581 476.993C274.445 479.385 273.209 481.742 272.019 484.108Q261.614 505.475 251.558 527.008L244.843 527.155C242.259 522.819 221.599 480.465 221.075 478.07L221.804 477.3C224.29 477.04 226.799 477.034 229.296 476.97C236.512 489.611 241.166 503.752 247.891 516.662C250.487 512.418 252.37 507.596 254.452 503.074L266.414 476.965Z"/>
	<path fill="#147AE3" transform="scale(0.318359 0.318359)" d="M599.045 473.698C601.95 473.803 604.858 474.006 607.761 474.167C606.986 476.415 605.884 478.532 604.854 480.672C597.149 494.814 591.072 509.802 583.435 524.009L577.238 524.198C574.054 518.862 571.75 512.965 569.028 507.38C563.673 496.396 558.02 485.497 553.636 474.076L561.738 473.927C568.421 487.127 574.417 500.72 580.855 514.044C582.857 507.863 585.982 502.072 588.66 496.164C592.061 488.662 595.111 480.938 599.045 473.698Z"/>
	<path fill="#147AE3" transform="scale(0.318359 0.318359)" d="M733.861 488.187C734.419 488.096 734.936 488.018 735.502 487.997C740.761 487.806 747.069 487.986 751.054 491.86C757.147 497.785 755.081 515.534 755.021 523.97C752.72 523.669 750.338 523.752 748.019 523.724L747.748 518.367C743.618 522.121 739.223 524.159 733.553 524.145C729.254 524.135 724.543 522.855 721.454 519.741C720.568 518.4 719.447 516.9 719.111 515.308C718.353 511.71 720.587 508.648 722.528 505.869C733.331 501.386 741.707 504.95 747.117 502.829C747.36 502.034 747.334 501.653 747.138 500.818C746.657 498.766 745.257 496.5 743.45 495.425C737.112 491.657 729.71 495.829 723.345 497.446L721.04 492.161C725.241 489.696 729.1 488.778 733.861 488.187ZM743.347 507.727C739.275 507.848 730.325 507.828 727.473 511.444C727.082 511.939 726.749 512.666 726.881 513.308C727.239 515.049 729.187 517.035 730.803 517.728C731.028 517.825 731.275 517.86 731.511 517.926L738.939 517.921C742.352 515.975 746.21 513.104 747.484 509.228C747.329 508.619 747.434 508.232 746.795 507.945C745.736 507.469 744.478 507.667 743.347 507.727Z"/>
	<path fill="#147AE3" transform="scale(0.318359 0.318359)" d="M622.343 488.102C627.683 487.707 632.271 487.533 637.063 490.415C641.251 492.935 644.078 497.046 645.127 501.803C646.252 506.903 645.441 512.559 642.459 516.902C639.515 521.19 635.54 522.984 630.618 523.933C624.938 524.16 619.172 524.357 614.183 521.135C610.431 518.712 608.082 514.833 607.181 510.501C606.103 505.324 606.864 499.709 609.946 495.333C613.046 490.932 617.24 489.074 622.343 488.102ZM625.395 494.135C621.997 494.893 618.869 496.04 616.926 499.126C614.704 502.655 614.951 507.009 615.015 511.008C617.589 514.224 619.573 516.973 623.95 517.53C625.426 517.717 626.902 517.687 628.385 517.63C632.14 516.498 634.887 515.241 636.81 511.598C638.234 508.9 638.362 505.727 637.362 502.864C636.27 499.737 633.626 496.818 630.543 495.554C628.907 494.883 627.115 494.522 625.395 494.135Z"/>
	<path fill="#147AE3" transform="scale(0.318359 0.318359)" d="M830.226 488.111C835.358 487.837 840.03 488.064 844.599 490.744C848.649 493.119 851.604 496.892 852.658 501.49C853.824 506.578 853.068 512.52 850.204 516.939C847.476 521.147 843.421 523.12 838.625 524.059C832.698 524.107 826.779 524.339 821.59 520.947C817.563 518.315 815.013 513.951 814.214 509.251Q814.063 508.364 814 507.467Q813.937 506.569 813.962 505.67Q813.988 504.77 814.101 503.878Q814.214 502.985 814.414 502.108Q814.614 501.231 814.899 500.378Q815.184 499.524 815.551 498.703Q815.919 497.882 816.365 497.1Q816.811 496.319 817.331 495.585C820.591 491 824.894 489.113 830.226 488.111ZM833.064 494.178C829.328 494.718 826.625 495.937 824.344 499.079Q823.973 499.598 823.657 500.153Q823.34 500.707 823.082 501.291Q822.824 501.874 822.626 502.481Q822.428 503.088 822.294 503.712Q822.159 504.336 822.088 504.97Q822.017 505.604 822.012 506.243Q822.006 506.881 822.065 507.516Q822.125 508.152 822.248 508.778Q822.365 509.348 822.539 509.903Q822.713 510.459 822.942 510.993Q823.171 511.528 823.453 512.037Q823.735 512.546 824.067 513.024Q824.399 513.502 824.777 513.944Q825.156 514.386 825.577 514.787Q825.998 515.188 826.458 515.545Q826.918 515.902 827.411 516.21C829.668 517.635 832.196 517.98 834.812 518.037C838.393 517.226 841.212 515.894 843.173 512.654C845.068 509.523 845.403 505.637 844.339 502.161C843.429 499.183 841.639 496.774 838.795 495.423C837.095 494.616 834.952 493.975 833.064 494.178Z"/>
	<path fill="#147AE3" transform="scale(0.318359 0.318359)" d="M394.011 476.918L402.157 476.916L402.077 527.02C400.17 527.114 397.742 527.537 395.961 526.782C394.803 525.523 394.917 523.999 394.799 522.383C392.502 523.69 390.076 525.203 387.584 526.092C382.29 527.981 376.589 527.554 371.562 525.134C370.074 524.157 368.749 523.081 367.603 521.705C364.234 517.657 362.819 512.104 363.384 506.913C363.901 502.159 366.11 497.692 369.884 494.692Q370.254 494.402 370.639 494.132Q371.023 493.862 371.421 493.612Q371.818 493.362 372.228 493.132Q372.638 492.903 373.06 492.694Q373.481 492.486 373.912 492.299Q374.344 492.113 374.784 491.949Q375.224 491.784 375.672 491.643Q376.12 491.501 376.575 491.383Q377.03 491.265 377.49 491.17Q377.95 491.075 378.414 491.003Q378.879 490.932 379.346 490.884Q379.814 490.837 380.283 490.813Q380.753 490.789 381.222 490.79Q381.692 490.79 382.162 490.815Q382.631 490.839 383.098 490.887Q383.566 490.936 384.03 491.008C388.28 491.691 391.469 493.905 394.024 497.26C394.231 490.491 394.065 483.691 394.011 476.918ZM380.766 497.05C376.77 498.703 373.793 500.291 372.014 504.526C370.691 507.673 370.791 511.358 372.139 514.48C373.367 517.325 375.679 519.705 378.592 520.833C380.7 521.65 382.95 521.376 385.147 521.174C387.32 520.215 389.498 519.319 391.517 518.056C393.867 513.482 394.594 510.063 394.211 504.864C392.063 501.03 389.719 498.7 385.394 497.47C383.831 497.026 382.383 496.87 380.766 497.05Z"/>
	<path fill="#147AE3" transform="scale(0.318359 0.318359)" d="M527.856 399.273C528.977 395.874 530.955 392.324 534.216 390.693Q535.667 389.981 537.14 389.316L536.607 388.846C532.955 385.57 530.822 382.07 530.547 377.045C530.315 372.814 531.619 368.194 534.478 364.989C535.95 363.338 538.069 362.185 540.308 362.159C543.038 362.126 545.602 363.527 547.49 365.426C549.963 367.912 551.499 371.315 551.446 374.841C551.38 379.277 549.493 384.804 546.053 387.766C544.507 389.097 543.171 389.384 541.198 389.563L540.283 389.653C540.075 389.672 539.866 389.687 539.657 389.703C543.92 392.479 547.143 394.282 548.15 399.676C548.839 403.374 548.706 407.659 546.41 410.812C543.662 414.585 540.009 415.452 535.663 416.144C535.159 421.082 534.518 425.743 530.389 429.074C528.479 430.615 524.736 431.455 523.484 433.323C523.445 434.536 523.28 435.778 523.597 436.955C523.731 436.875 523.865 436.794 524 436.715C525.23 436.005 525.914 435.703 527.386 435.742C528.751 436.617 529.294 437.343 529.633 438.957C530.144 441.395 530.265 443.812 529.125 446.066C528.015 446.954 527.915 447.054 526.509 447.164C524.567 446.141 523.71 444.502 522.757 442.595C521.445 444.501 520.428 446.278 518.459 447.567C514.448 447.391 510.707 446.679 506.895 445.398C504.721 441.309 504.236 436.842 505.647 432.404C506.709 429.064 508.506 426.752 510.877 424.273C509.035 417.817 507.3 411.572 510.741 405.226C512.43 402.111 515.023 400.132 518.42 399.193C521.417 398.364 524.801 398.97 527.856 399.273Z"/>
	<path fill="#F1302F" transform="scale(0.318359 0.318359)" d="M444.977 405.553C447.186 403.517 449.509 401.848 452.648 401.866C455.036 401.88 457.174 403.222 458.712 404.972C461.788 408.471 462.676 412.647 463.374 417.113C466.086 416.025 468.72 415.528 471.508 416.8C472.812 417.395 473.671 418.379 474.139 419.743C475.27 423.04 474.169 426.954 472.562 429.899C471.526 431.797 470.374 433.642 469.246 435.486C471.401 436.45 475.261 437.986 476.174 440.295C476.427 440.935 476.428 441.83 476.504 442.511C476.704 444.278 476.991 445.565 477.764 447.172C479.29 447.553 480.001 447.57 481.141 448.689C481.706 450.343 481.423 451.87 481.241 453.566L481.748 454.68C482.336 454.801 482.872 454.919 483.472 454.946L484.09 459.008C482.573 459.561 481.952 460.087 480.356 459.328C479.126 458.743 477.887 457.271 476.784 456.44L473.736 459.161C476.095 459.686 478.639 460.029 480.749 461.246L481.353 462.299L482.534 463.254C484.294 463.043 485.506 460.846 487.191 459.911C488.736 459.763 489.337 460.154 490.65 460.863C490.962 462.882 490.911 463.886 490.12 465.749C489.751 466.617 489.395 467.49 489.019 468.355C488.014 470.57 489 473.94 489.005 476.379L489.579 483.314C489.537 486.143 489.72 489.263 487.35 491.295C486.585 491.951 485.696 492.496 484.846 493.035C484.722 492.482 484.647 492.018 484.398 491.492C483.749 490.115 481.832 489.761 480.505 489.352C476.822 488.566 473.398 486.777 470.129 484.968C464.599 482.122 456.217 472.332 453.981 471.545C454.199 468.861 460.306 463.974 462.31 461.795C460.849 461.035 459.426 460.188 457.994 459.374C457.79 460.613 457.678 461.866 456.997 462.951C456.547 463.67 456.608 463.438 455.645 463.645C454.926 463.199 454.647 462.759 454.316 462.002C453.567 460.288 453.369 458.741 454.036 456.969L454.956 456.681C456.217 457.177 456.958 458.142 457.849 459.116C457.352 454.446 459.206 452.2 461.95 448.69C460.295 446.761 458.565 444.741 457.121 442.651L456.765 442.128L456.488 443.23C456.355 443.334 456.187 443.406 456.088 443.544C455.551 444.29 455.525 444.942 454.757 445.626C453.987 446.312 452.845 446.805 451.809 446.579C450.629 446.321 449.786 445.63 449.105 444.663C447.85 442.879 447.684 441.198 448.108 439.096C448.442 437.438 448.934 436.713 450.341 435.811C452.08 435.628 453.586 436.415 455.172 437.034C455.072 434.407 454.474 431.712 454.069 429.111C449.544 430.663 447.629 429.63 443.19 428.414C442.468 424.25 441.91 419.963 440.661 415.922C441.881 412.491 442.884 408.538 444.977 405.553Z"/>
	<path fill="#C22D4D" transform="scale(0.318359 0.318359)" d="M467.487 451.733C468.007 452.027 468.644 452.338 469.098 452.743C470.134 453.67 470.257 454.389 470.396 455.712C469.84 457.457 468.794 458.388 467.518 459.659C466.983 459.509 466.499 459.232 466 458.99C465.488 458.215 465 457.564 464.943 456.596C464.812 454.38 465.947 453.125 467.487 451.733Z"/>
	<path fill="#863764" transform="scale(0.318359 0.318359)" d="M464.695 468.272C465.11 468.491 465.191 468.522 465.63 468.816C466.981 469.724 468.035 470.893 468.19 472.594C468.387 474.748 467.275 476.161 465.986 477.703C464.636 477.092 463.136 476.166 462.701 474.631C462.064 472.389 463.644 470.11 464.695 468.272Z"/>
	<path fill="#C22D4D" transform="scale(0.318359 0.318359)" d="M481.353 462.299L482.534 463.254C484.294 463.043 485.506 460.846 487.191 459.911C488.736 459.763 489.337 460.154 490.65 460.863C490.962 462.882 490.911 463.886 490.12 465.749C489.751 466.617 489.395 467.49 489.019 468.355C488.014 470.57 489 473.94 489.005 476.379L489.579 483.314C489.537 486.143 489.72 489.263 487.35 491.295C486.585 491.951 485.696 492.496 484.846 493.035C484.722 492.482 484.647 492.018 484.398 491.492C483.749 490.115 481.832 489.761 480.505 489.352C476.822 488.566 473.398 486.777 470.129 484.968C470.793 483.504 471.076 482.167 472.431 481.265L473.165 481.291C474.598 480.363 474.595 479.137 475.092 477.539C475.922 476.945 477.155 476.289 477.843 475.571C479.156 474.199 477.971 467.179 481.353 462.299Z"/>
	<path fill="#EF733F" transform="scale(0.318359 0.318359)" d="M453.981 471.545C456.217 472.332 464.599 482.122 470.129 484.968C473.398 486.777 476.822 488.566 480.505 489.352C474.782 506.179 467.193 521.848 459.117 537.662C438.873 577.305 414.957 614.994 385.159 648.169C381.187 652.592 376.864 659.868 371.744 662.656C370.4 662.684 370.268 662.66 369.131 661.946C403.741 612.869 430.204 566.427 446.25 508.254C449.563 496.243 453.254 484.037 453.981 471.545Z"/>
	<defs>
		<linearGradient id="gradient_0" gradientUnits="userSpaceOnUse" x1="420.63303" y1="722.33521" x2="365.03778" y2="522.64563">
			<stop offset="0" stop-color="#E52B3D"/>
			<stop offset="1" stop-color="#EB5B43"/>
		</linearGradient>
	</defs>
	<path fill="url(#gradient_0)" transform="scale(0.318359 0.318359)" d="M480.505 489.352C481.832 489.761 483.749 490.115 484.398 491.492C484.647 492.018 484.722 492.482 484.846 493.035C484.777 499.168 488.677 505.765 488.918 512.474C489.185 519.917 488.649 527.543 488.538 535.001Q487.984 560.469 488.098 585.942C488.665 593.663 487.647 601.971 488.877 609.553C488.304 612.34 487.771 615.141 487.09 617.904C489.261 623.957 487.971 662.791 487.964 671.658L487.945 765.462C487.95 771.504 486.926 790.448 487.984 794.864C430.095 794.794 371.196 793.228 313.921 783.999C300.486 782.002 272.197 777.783 262.831 768.403C261.815 767.386 260.955 765.994 261.178 764.491C262.09 758.348 289.905 740.928 296.05 736.707C322.798 715.011 348.717 689.774 369.131 661.946C370.268 662.66 370.4 662.684 371.744 662.656C376.864 659.868 381.187 652.592 385.159 648.169C414.957 614.994 438.873 577.305 459.117 537.662C467.193 521.848 474.782 506.179 480.505 489.352Z"/>
	<defs>
		<linearGradient id="gradient_1" gradientUnits="userSpaceOnUse" x1="380.27225" y1="590.39886" x2="369.1041" y2="785.7644">
			<stop offset="0" stop-color="#DE3443"/>
			<stop offset="1" stop-color="#B92A4E"/>
		</linearGradient>
	</defs>
	<path fill="url(#gradient_1)" transform="scale(0.318359 0.318359)" d="M488.098 585.942C488.665 593.663 487.647 601.971 488.877 609.553C488.304 612.34 487.771 615.141 487.09 617.904C480.581 634.212 475.92 651.189 468.995 667.347C449.786 712.164 416.521 748.294 371.439 767.668C364.56 770.624 357.445 773.418 350.203 775.325C342.118 777.455 319.258 779.612 313.921 783.999C300.486 782.002 272.197 777.783 262.831 768.403C261.815 767.386 260.955 765.994 261.178 764.491C262.09 758.348 289.905 740.928 296.05 736.707C296.612 737.717 297.203 738.462 298.116 739.176C308.088 746.966 324.986 747.257 336.937 745.767C388.559 739.328 440.631 680.586 465.464 638.153Q471.179 628.319 476.109 618.068C479.464 611.041 482.353 601.547 487.276 595.634C487.475 595.395 487.684 595.165 487.888 594.93C487.852 591.913 487.888 588.953 488.098 585.942Z"/>
	<path fill="#393A72" transform="scale(0.318359 0.318359)" d="M487.09 617.904C489.261 623.957 487.971 662.791 487.964 671.658L487.945 765.462C487.95 771.504 486.926 790.448 487.984 794.864C430.095 794.794 371.196 793.228 313.921 783.999C319.258 779.612 342.118 777.455 350.203 775.325C357.445 773.418 364.56 770.624 371.439 767.668C416.521 748.294 449.786 712.164 468.995 667.347C475.92 651.189 480.581 634.212 487.09 617.904Z"/>
	<defs>
		<linearGradient id="gradient_2" gradientUnits="userSpaceOnUse" x1="589.66815" y1="803.48877" x2="621.70709" y2="478.99261">
			<stop offset="0" stop-color="#314D83"/>
			<stop offset="1" stop-color="#2A8BCE"/>
		</linearGradient>
	</defs>
	<path fill="url(#gradient_2)" transform="scale(0.318359 0.318359)" d="M514.677 479.578C515.88 476.311 518.949 469.968 521.671 467.963C525.017 476.052 525.257 485.561 526.863 494.116C528.521 502.95 531.128 511.898 533.78 520.486Q535.555 526.262 537.486 531.987Q539.417 537.712 541.504 543.383Q543.59 549.053 545.829 554.665Q548.069 560.277 550.46 565.826Q552.851 571.375 555.392 576.857Q557.933 582.339 560.622 587.75Q563.312 593.161 566.147 598.496Q568.982 603.832 571.961 609.089Q574.94 614.345 578.061 619.519Q581.182 624.693 584.443 629.78Q587.703 634.867 591.101 639.863Q594.498 644.86 598.03 649.762Q601.562 654.665 605.226 659.469Q608.89 664.274 612.683 668.977Q616.477 673.68 620.396 678.279Q624.316 682.877 628.359 687.367C644.298 705.134 661.729 721.205 680.137 736.394Q686.542 741.642 693.342 746.367C698.401 749.873 710.091 755.892 713.309 760.403C714.686 762.333 715.272 764.951 714.305 767.176C712.359 771.653 703.858 774.247 699.509 775.539C667.398 785.078 631.162 788.549 597.749 791.016Q542.943 795.132 487.984 794.864C486.926 790.448 487.95 771.504 487.945 765.462L487.964 671.658C487.971 662.791 489.261 623.957 487.09 617.904C487.771 615.141 488.304 612.34 488.877 609.553C487.647 601.971 488.665 593.663 488.098 585.942Q487.984 560.468 488.538 535.001C488.649 527.543 489.185 519.917 488.918 512.474C488.677 505.765 484.777 499.168 484.846 493.035C485.696 492.496 486.585 491.951 487.35 491.295C489.72 489.263 489.537 486.143 489.579 483.314C489.995 486.801 490.505 488.172 492.974 490.752C501.056 488.915 506.518 483.346 513.493 479.361L514.061 479.043L514.677 479.578Z"/>
	<path fill="#393A72" transform="scale(0.318359 0.318359)" d="M514.061 479.043L514.677 479.578C511.399 511.038 501.99 582.973 488.877 609.553C487.647 601.971 488.665 593.663 488.098 585.942Q487.984 560.468 488.538 535.001C488.649 527.543 489.185 519.917 488.918 512.474C488.677 505.765 484.777 499.168 484.846 493.035C485.696 492.496 486.585 491.951 487.35 491.295C489.72 489.263 489.537 486.143 489.579 483.314C489.995 486.801 490.505 488.172 492.974 490.752C501.056 488.915 506.518 483.346 513.493 479.361L514.061 479.043Z"/>
</svg>
