<?xml version="1.0" encoding="UTF-8" standalone="no"?>
<svg
   width="253.50671"
   height="219.07742"
   version="1.1"
   id="svg146"
   sodipodi:docname="Vivid_volcano_logo3.svg"
   inkscape:version="1.3.2 (091e20e, 2023-11-25, custom)"
   inkscape:export-filename="Vivid_volcano_logo.png"
   inkscape:export-xdpi="115.06245"
   inkscape:export-ydpi="115.06245"
   xmlns:inkscape="http://www.inkscape.org/namespaces/inkscape"
   xmlns:sodipodi="http://sodipodi.sourceforge.net/DTD/sodipodi-0.dtd"
   xmlns="http://www.w3.org/2000/svg"
   xmlns:svg="http://www.w3.org/2000/svg">
  <sodipodi:namedview
     id="namedview146"
     pagecolor="#ffffff"
     bordercolor="#999999"
     borderopacity="1"
     inkscape:showpageshadow="0"
     inkscape:pageopacity="0"
     inkscape:pagecheckerboard="0"
     inkscape:deskcolor="#d1d1d1"
     inkscape:zoom="2.493865"
     inkscape:cx="128.51538"
     inkscape:cy="105.2583"
     inkscape:window-width="1920"
     inkscape:window-height="1009"
     inkscape:window-x="-8"
     inkscape:window-y="-8"
     inkscape:window-maximized="1"
     inkscape:current-layer="svg146" />
  <path
     fill="#147ae3"
     d="m 55.752085,0.42327133 142.679015,-0.0223 c 1.5157,2.54782007 2.72053,5.42705997 4.0492,8.08662997 3.72136,7.4495997 7.20383,15.0144497 10.91701,22.4634097 l 38.90154,78.701219 c -2.09218,4.63086 -4.40219,9.1716 -6.64934,13.72667 l -11.7676,23.80307 -35.54732,72.28341 -142.492607,0.013 c -0.817888,-1.33488 -1.439318,-2.84231 -2.116387,-4.25614 L 49.818155,207.05576 37.885226,182.79967 12.455575,131.31751 Q 7.1223297,120.56462 2.0000003,109.70699 L 39.903542,32.472771 50.096022,11.780081 C 51.960316,7.9935114 53.747285,4.1346814 55.752085,0.42326133 Z M 57.032039,2.3248213 22.229053,72.896741 10.269407,97.111761 C 8.1863391,101.31346 5.8822961,105.4881 4.0022848,109.78181 14.965504,132.65146 26.549525,155.23138 37.734662,177.99086 l 13.628112,28.08404 c 1.888183,3.80789 3.669809,7.78197 5.77488,11.46061 l 92.519726,-0.0108 31.35667,-3.2e-4 c 5.32946,-3.1e-4 10.67937,-0.10728 16.00664,0.0102 l 36.57172,-74.02515 c 5.51399,-11.21006 10.81267,-22.52199 16.50172,-33.64482 -1.665,-3.85087 -3.70752,-7.57726 -5.56584,-11.338029 l -11.08455,-22.43862 -36.18478,-73.7430897 -91.82222,0.002 c -16.130189,-6.4e-4 -32.276404,0.1524899 -48.404701,-0.0217 z"
     id="path1"
     style="stroke-width:0.316339" />
  <path
     fill="#c22d4d"
     d="m 106.4705,104.63977 c 0.45872,-0.129 0.76834,-0.23085 1.1817,0.13742 0.0805,0.41837 -0.007,0.43615 -0.15283,0.79828 -0.28775,0.29068 -0.56596,0.23927 -0.88511,0.37765 z"
     id="path2"
     style="stroke-width:0.274247" />
  <path
     fill="#c22d4d"
     d="m 96.64214,86.549371 c 0.31683,0.02134 0.45036,0.06854 0.71112,0.321708 0.25751,0.582633 0.22401,1.141987 0.1626,1.79866 -0.30124,-0.141293 -0.58202,-0.189145 -0.74857,-0.617875 -0.15422,-0.397367 -0.12096,-1.064065 -0.12515,-1.502493 z"
     id="path3"
     style="stroke-width:0.274247" />
  <path
     fill="#863764"
     d="m 112.80772,37.160728 c 0.3573,0.136121 0.54642,0.290994 0.70786,0.765311 0.1512,0.445221 0.20493,0.884621 0.0905,1.353766 -0.058,-0.01778 -0.11608,-0.03298 -0.17331,-0.054 -0.40406,-0.149053 -0.56898,-0.325589 -0.77345,-0.827713 -0.044,-0.524112 0.004,-0.749146 0.14841,-1.237368 z"
     id="path4"
     style="stroke-width:0.274247" />
  <path
     fill="#863764"
     d="m 106.82036,91.740687 c 0.0926,0.02748 0.22354,0.05982 0.30752,0.114458 0.28542,0.185589 0.32311,0.366325 0.4436,0.741062 -0.008,0.530905 -0.10817,0.867161 -0.26844,1.345356 -0.33009,-0.177507 -0.39568,-0.228592 -0.62365,-0.601702 -0.10328,-0.584256 0.0228,-1.034004 0.14097,-1.599174 z"
     id="path5"
     style="stroke-width:0.274247" />
  <path
     fill="#393a72"
     d="m 109.92325,53.131399 c 0.39917,0.110578 0.59016,0.158429 0.86441,0.599446 0.12562,0.544804 0.0614,0.910162 -0.0244,1.460786 -0.36848,-0.08892 -0.5334,-0.192055 -0.78673,-0.584896 -0.14607,-0.528315 -0.10211,-0.921802 -0.0533,-1.475336 z"
     id="path6"
     style="stroke-width:0.274247" />
  <path
     fill="#f1302f"
     d="m 98.92692,83.57833 c 0.11096,0.0088 0.29031,0.01778 0.39429,0.05302 0.2938,0.09926 0.36358,0.234087 0.53153,0.5503 0.0528,0.532517 -0.008,0.901432 -0.10794,1.417136 -0.36032,-0.209192 -0.62062,-0.341109 -0.86766,-0.787298 -0.0991,-0.491455 -0.0477,-0.763048 0.0498,-1.233164 z"
     id="path7"
     style="stroke-width:0.274247" />
  <path
     fill="#393a72"
     d="m 118.09025,71.242809 c 0.33636,0.240231 0.56689,0.423558 0.76229,0.893673 0.013,0.611409 -0.0609,0.756905 -0.25728,1.28619 -0.36055,-0.174597 -0.552,-0.289054 -0.75484,-0.751733 -0.0626,-0.555796 0.0923,-0.935057 0.24983,-1.42813 z"
     id="path8"
     style="stroke-width:0.274247" />
  <path
     fill="#393a72"
     d="m 110.55923,93.641514 c 0.2931,0.33271 0.66506,0.934738 0.69577,1.48374 0.0284,0.505689 -0.12748,0.678014 -0.33893,1.046282 -0.2717,-0.189469 -0.54387,-0.619805 -0.62598,-1.031397 -0.11468,-0.575529 0.0635,-1.029793 0.26914,-1.498625 z"
     id="path9"
     style="stroke-width:0.274247" />
  <path
     fill="#f1302f"
     d="m 106.10412,98.749747 c 0.32102,0.138383 0.56923,0.2011 0.77021,0.608822 0.1056,0.541892 -0.008,1.007151 -0.0984,1.536441 -0.0426,-0.007 -0.0856,-0.009 -0.12794,-0.0181 -0.38149,-0.0831 -0.50664,-0.25835 -0.71205,-0.67608 -0.0474,-0.572939 0.0263,-0.914041 0.16818,-1.451088 z"
     id="path10"
     style="stroke-width:0.274247" />
  <path
     fill="#c22d4d"
     d="m 102.62857,52.817773 c 0.23913,0.103144 0.53852,0.310393 0.65157,0.633396 0.20284,0.579722 0.0328,1.152979 -0.11701,1.712008 -0.074,-0.03363 -0.15027,-0.0582 -0.22215,-0.10055 -0.28682,-0.169746 -0.39941,-0.384434 -0.52874,-0.760786 -0.0372,-0.594919 0.0521,-0.938291 0.21633,-1.484064 z"
     id="path11"
     style="stroke-width:0.274247" />
  <path
     fill="#147ae3"
     d="m 139.80785,57.835509 c 0.36405,0.145172 0.57736,0.2218 0.82905,0.648591 0.15027,0.56291 0.0723,1.079584 0.0242,1.66448 -0.2824,-0.132563 -0.56573,-0.278706 -0.75415,-0.619168 -0.29054,-0.525081 -0.19446,-1.105774 -0.0991,-1.693903 z"
     id="path12"
     style="stroke-width:0.274247" />
  <path
     fill="#f1302f"
     d="m 89.74943,94.668403 0.33172,0.15357 c 0.20145,0.277425 0.37311,0.594283 0.42708,0.991326 0.0717,0.525405 0.0267,0.748491 -0.15981,1.198565 -0.34334,-0.288083 -0.69436,-0.546743 -0.87464,-1.065673 -0.0577,-0.529935 0.0984,-0.833541 0.27565,-1.277788 z"
     id="path13"
     style="stroke-width:0.274247" />
  <path
     fill="#f1302f"
     d="m 96.20412,70.644657 c 0.35568,0.249607 0.61342,0.417091 0.8465,0.87589 0.0593,0.583278 0.005,0.688683 -0.15795,1.211501 -0.10258,0.01293 -0.32636,0.04818 -0.42406,0.02877 -0.25541,-0.05044 -0.3159,-0.295519 -0.43314,-0.566466 -0.02,-0.579723 0.0479,-0.996167 0.16865,-1.5497 z"
     id="path14"
     style="stroke-width:0.274247" />
  <path
     fill="#393a72"
     d="m 107.85597,100.66383 c 0.0344,0.012 0.0693,0.0204 0.10282,0.0362 0.31171,0.14712 0.57829,0.49663 0.67715,0.93894 0.11887,0.53252 0.008,0.87201 -0.14911,1.35312 -0.11444,-0.0327 -0.21935,-0.0552 -0.32822,-0.12287 -0.24285,-0.15066 -0.45616,-0.41967 -0.5192,-0.78988 -0.0886,-0.52218 0.0631,-0.95381 0.21656,-1.41551 z"
     id="path15"
     style="stroke-width:0.274247" />
  <path
     fill="#147ae3"
     d="m 143.43856,58.251951 c 0.24286,0.135474 0.45709,0.367299 0.58759,0.688038 0.26239,0.644064 0.17261,1.289423 0.0261,1.960324 -0.25402,-0.233118 -0.60853,-0.530902 -0.7574,-0.906282 -0.22076,-0.557413 0.004,-1.203095 0.14376,-1.74208 z"
     id="path16"
     style="stroke-width:0.274247" />
  <path
     fill="#f1302f"
     d="m 89.87319,101.65449 c 0.12491,0.0185 0.31612,0.0265 0.43848,0.0877 0.30636,0.15357 0.33893,0.26059 0.48687,0.63565 -0.002,0.59137 -0.16818,1.01233 -0.34892,1.53806 -0.31986,-0.14841 -0.46129,-0.31039 -0.6425,-0.70065 -0.0882,-0.59233 -0.0361,-0.97741 0.0661,-1.56069 z"
     id="path17"
     style="stroke-width:0.274247" />
  <path
     fill="#147ae3"
     d="m 150.6802,34.649826 c 0.0493,0.01519 0.0996,0.02554 0.14794,0.04526 0.25216,0.101209 0.45524,0.30716 0.54782,0.663142 0.15608,0.600092 -0.0449,1.250299 -0.22727,1.787666 -0.26751,-0.189468 -0.61085,-0.597505 -0.71926,-0.997459 -0.15329,-0.565174 0.0528,-1.030116 0.25077,-1.498614 z"
     id="path18"
     style="stroke-width:0.274247" />
  <path
     fill="#863764"
     d="m 106.64334,89.178977 c 0.3452,0.09602 0.58387,0.13418 0.83719,0.508592 0.16585,0.544481 0.0577,1.120647 -4.6e-4,1.68679 -0.0921,0.01585 -0.2203,0.04171 -0.31055,0.03686 -0.31589,-0.01811 -0.35451,-0.0999 -0.55875,-0.402541 -0.12887,-0.606881 -0.0277,-1.215057 0.0326,-1.8297 z"
     id="path19"
     style="stroke-width:0.274247" />
  <path
     fill="#f1302f"
     d="m 82.590377,62.52498 c 0.385681,0.07695 0.585733,0.108315 0.889299,0.45395 0.202611,0.604618 0.104213,1.345681 0.07583,1.996211 -0.359395,-0.217598 -0.595503,-0.39575 -0.871155,-0.78665 -0.19098,-0.577461 -0.13585,-1.04305 -0.09398,-1.663511 z"
     id="path20"
     style="stroke-width:0.274247" />
  <path
     fill="#f1302f"
     d="m 97.44658,19.014365 c 0.2845,0.20402 0.58481,0.504712 0.69902,0.941848 0.15772,0.605265 -0.0235,1.300739 -0.16236,1.876583 -0.28124,-0.176536 -0.58202,-0.551595 -0.70251,-0.952518 -0.19424,-0.646651 -0.0149,-1.263557 0.16585,-1.865913 z"
     id="path21"
     style="stroke-width:0.274247" />
  <path
     fill="#863764"
     d="m 111.64021,45.25163 c 0.11212,0.06726 0.19237,0.110254 0.29565,0.187205 0.30497,0.226975 0.60482,0.623372 0.67716,1.107714 0.0781,0.524757 -0.11701,0.865866 -0.29427,1.289423 -0.32798,-0.01713 -0.3452,-0.04559 -0.60736,-0.325589 -0.30217,-0.790855 -0.23517,-1.417136 -0.0712,-2.258753 z"
     id="path22"
     style="stroke-width:0.274247" />
  <path
     fill="#393a72"
     d="m 108.2591,95.019862 c 0.33195,0.212741 0.64133,0.486275 0.73159,1.02009 0.1056,0.623372 -0.12957,1.091217 -0.38848,1.550663 q -0.117,-0.0708 -0.23169,-0.148404 c -0.2689,-0.183966 -0.51385,-0.4145 -0.58038,-0.855202 -0.0921,-0.610109 0.22494,-1.117084 0.46896,-1.567147 z"
     id="path23"
     style="stroke-width:0.274247" />
  <path
     fill="#f1302f"
     d="m 88.27696,80.299809 c 0.16702,0.03234 0.36149,0.0582 0.51781,0.146789 0.26542,0.150993 0.475,0.457507 0.54619,0.847113 0.0937,0.512795 -0.12957,1.055335 -0.28077,1.502171 -0.0951,0.0091 -0.22704,0.02975 -0.31892,-0.0016 -0.17679,-0.06078 -0.34428,-0.196259 -0.44175,-0.409655 -0.29403,-0.644387 -0.12933,-1.390946 -0.0226,-2.084803 z"
     id="path24"
     style="stroke-width:0.274247" />
  <path
     fill="#147ae3"
     d="m 124.50609,97.086234 c 0.38498,0.144198 0.73321,0.357274 0.90279,0.904331 0.19936,0.642126 0.01,1.209245 -0.17097,1.800608 -0.20517,0.03135 -0.17493,0.05794 -0.37079,-0.03297 -0.26566,-0.123185 -0.43407,-0.324944 -0.52735,-0.699349 -0.17655,-0.709383 -0.0321,-1.313351 0.16632,-1.972611 z"
     id="path25"
     style="stroke-width:0.274247" />
  <path
     fill="#f1302f"
     d="m 81.477066,43.12835 c 0.315663,0.04946 0.658077,0.211455 0.867666,0.553857 0.332644,0.544157 0.09398,1.68873 0.01791,2.329238 -0.439183,-0.298754 -0.983509,-0.68642 -1.1168,-1.401293 -0.101886,-0.546744 0.07002,-0.997136 0.231224,-1.481802 z"
     id="path26"
     style="stroke-width:0.274247" />
  <path
     fill="#f1302f"
     d="m 81.132558,90.904566 c 0.217033,-0.01552 0.400103,0.03395 0.612252,0.09441 0.145851,0.176859 0.266813,0.25769 0.324502,0.527666 0.158878,0.743323 -0.136315,1.309794 -0.406617,1.912797 -0.199353,0.0061 -0.153295,0.03362 -0.353347,-0.09445 -0.262859,-0.168772 -0.424528,-0.37894 -0.49222,-0.780834 -0.112588,-0.669929 0.07979,-1.111914 0.31543,-1.659628 z"
     id="path27"
     style="stroke-width:0.274247" />
  <path
     fill="#f1302f"
     d="m 84.50366,48.594493 c 0.11003,0.04236 0.18679,0.06531 0.29333,0.139354 0.3587,0.24993 0.56898,0.742033 0.66133,1.267759 0.0979,0.55903 -0.0286,1.170117 -0.26425,1.61857 -0.14864,-0.06628 -0.30636,-0.14194 -0.44616,-0.237322 -0.27007,-0.183972 -0.4778,-0.481433 -0.55293,-0.898198 -0.11887,-0.657646 0.11096,-1.313996 0.30868,-1.890163 z"
     id="path28"
     style="stroke-width:0.274247" />
  <path
     fill="#2f538e"
     d="m 110.46409,96.370063 c 0.15492,0.103446 0.28658,0.208871 0.41104,0.379909 0.20819,0.286138 0.32706,0.666048 0.2931,1.078289 -0.0563,0.684153 -0.34824,1.008135 -0.72066,1.380283 -0.15771,-0.121249 -0.30542,-0.243786 -0.43615,-0.420661 -0.20332,-0.275144 -0.32102,-0.629825 -0.28962,-1.031397 0.0519,-0.663464 0.39103,-1.012978 0.74229,-1.386423 z"
     id="path29"
     style="stroke-width:0.274247" />
  <path
     fill="#f1302f"
     d="m 97.70381,50.590383 c 0.18121,-0.0023 0.40313,-0.02846 0.57923,0.0236 0.3459,0.102171 0.40847,0.244111 0.62225,0.603973 0.14003,0.713256 0.0379,1.416166 -0.0226,2.139445 -0.29961,-0.02327 -0.6932,-0.205312 -0.89675,-0.528313 -0.35846,-0.568407 -0.28751,-1.533212 -0.28216,-2.238707 z"
     id="path30"
     style="stroke-width:0.274247" />
  <path
     fill="#2e5f9d"
     d="m 108.86461,103.95594 c 0.28286,-0.18302 0.54944,-0.38379 0.87372,-0.25349 0.26448,0.10604 0.4208,0.30619 0.51827,0.6625 0.12142,0.4436 -0.0386,0.81187 -0.17703,1.19598 -0.007,0.0188 -0.013,0.0375 -0.0195,0.0562 -0.33241,0.21662 -0.51664,0.33464 -0.89628,0.25154 -0.2675,-0.26867 -0.34939,-0.34013 -0.42964,-0.81382 -0.0593,-0.35177 0.0346,-0.77824 0.1305,-1.09897 z"
     id="path31"
     style="stroke-width:0.274247" />
  <path
     fill="#c22d4d"
     d="m 96.51188,92.022303 c 0.29054,1.306558 0.42034,2.692656 0.58829,4.038976 -0.21169,-0.138058 -0.43197,-0.275144 -0.62923,-0.450063 -0.29938,-0.265448 -0.5548,-0.747529 -0.61877,-1.23187 -0.12724,-0.960919 0.27984,-1.632789 0.65971,-2.357043 z"
     id="path32"
     style="stroke-width:0.274247" />
  <path
     fill="#f1302f"
     d="m 96.69216,42.349781 c 0.11724,0.05626 0.24471,0.111225 0.3552,0.19044 0.30194,0.217598 0.43175,0.535426 0.51502,0.98291 0.11724,0.628545 -0.0784,1.28037 -0.28612,1.820647 -0.21703,-0.0569 -0.44849,-0.09634 -0.63318,-0.280971 -0.22727,-0.22665 -0.3815,-0.651501 -0.40104,-1.034966 -0.0335,-0.664433 0.1733,-1.169145 0.45012,-1.67806 z"
     id="path33"
     style="stroke-width:0.274247" />
  <path
     fill="#147ae3"
     d="m 123.04874,83.873527 c 0.0407,0 0.0817,-0.0025 0.12235,0 0.3901,0.02264 0.57923,0.122864 0.85069,0.513442 0.2368,0.771454 0.0733,1.397736 -0.12282,2.147851 -0.19913,0.0304 -0.36731,0.06693 -0.55945,-0.04462 -0.271,-0.156812 -0.41103,-0.438753 -0.50338,-0.813164 -0.15562,-0.630485 2.3e-4,-1.247391 0.21261,-1.803509 z"
     id="path34"
     style="stroke-width:0.274247" />
  <path
     fill="#147ae3"
     d="m 134.87133,56.558328 c 0.043,0.01973 0.0872,0.03459 0.12887,0.05917 0.32241,0.19141 0.65343,0.543511 0.74252,1.038523 0.12956,0.7194 -0.15725,1.317876 -0.39452,1.919907 -0.15795,-0.108314 -0.31822,-0.215982 -0.47036,-0.339168 -0.25449,-0.205958 -0.41313,-0.453626 -0.47454,-0.861339 -0.10351,-0.686421 0.21354,-1.273257 0.46803,-1.817093 z"
     id="path35"
     style="stroke-width:0.274247" />
  <path
     fill="#f1302f"
     d="m 99.76249,72.255466 c 0.36916,0.265449 0.75903,0.55224 0.90418,1.139723 0.17028,0.689007 -0.0863,1.297829 -0.29798,1.899215 -0.18377,-0.01843 -0.31822,-0.05173 -0.48618,-0.173304 -0.25564,-0.185265 -0.43755,-0.464617 -0.49617,-0.865865 -0.10747,-0.735566 0.13283,-1.375428 0.37615,-1.999769 z"
     id="path36"
     style="stroke-width:0.274247" />
  <path
     fill="#f1302f"
     d="m 89.26722,61.552739 c 0.18469,0.09085 0.37474,0.17589 0.53013,0.349838 0.2189,0.245406 0.36405,0.679309 0.36824,1.071502 0.007,0.680924 -0.22192,1.091548 -0.56899,1.522217 -0.0282,-0.02327 -0.0568,-0.04559 -0.0844,-0.06983 -0.35986,-0.317183 -0.79648,-0.699354 -0.83696,-1.354412 -0.0396,-0.639215 0.30217,-1.099953 0.59202,-1.519307 z"
     id="path37"
     style="stroke-width:0.274247" />
  <path
     fill="#147ae3"
     d="m 121.58487,95.206736 c 0.22285,0.0307 0.45942,0.04237 0.66226,0.191414 0.23007,0.169417 0.40964,0.504057 0.4485,0.863915 0.0688,0.63857 -0.15749,1.167542 -0.41779,1.65705 -0.17609,-0.02043 -0.41987,-0.032 -0.57922,-0.147766 q -0.0621,-0.04432 -0.11724,-0.103771 -0.0554,-0.05956 -0.10165,-0.132243 -0.046,-0.07242 -0.0819,-0.15584 -0.0358,-0.08334 -0.0598,-0.174595 c -0.18424,-0.720052 0.047,-1.339532 0.24681,-1.998153 z"
     id="path38"
     style="stroke-width:0.274247" />
  <path
     fill="#147ae3"
     d="m 134.35273,66.372599 c 0.1598,0.04139 0.25261,0.05464 0.40359,0.13418 0.27542,0.144851 0.49943,0.420325 0.58037,0.826745 0.13307,0.66896 -0.097,1.318198 -0.30984,1.896304 -0.22959,-0.09926 -0.49989,-0.210161 -0.70321,-0.391871 -0.25657,-0.229562 -0.40638,-0.554503 -0.43569,-0.980647 -0.0365,-0.52896 0.27123,-1.066328 0.46478,-1.484711 z"
     id="path39"
     style="stroke-width:0.274247" />
  <path
     fill="#f1302f"
     d="m 95.51929,99.973209 c 0.20843,0.133531 0.36149,0.174271 0.50083,0.441021 0.18935,0.36276 0.29473,0.8096 0.23495,1.26129 -0.09,0.68028 -0.25728,0.88849 -0.64109,1.26744 -0.20448,-0.12319 -0.39965,-0.2176 -0.53735,-0.47756 -0.21192,-0.4006 -0.26915,-0.98323 -0.18494,-1.45788 0.0989,-0.55869 0.28566,-0.74688 0.6276,-1.034311 z"
     id="path40"
     style="stroke-width:0.274247" />
  <path
     fill="#147ae3"
     d="m 132.98828,65.992648 c 0.16028,0.02005 0.36196,0.02619 0.51921,0.09473 0.30147,0.131916 0.38987,0.370208 0.52851,0.734919 0.0346,0.763372 -0.15121,1.403234 -0.32125,2.116167 -0.42127,-0.241525 -0.92699,-0.571317 -1.06469,-1.231871 -0.13539,-0.649238 0.10979,-1.181755 0.33822,-1.71395 z"
     id="path41"
     style="stroke-width:0.274247" />
  <path
     fill="#f1302f"
     d="m 102.52087,68.816251 c 0.12213,0.05368 0.20564,0.08342 0.3245,0.171039 0.36894,0.271917 0.66669,0.730715 0.74183,1.314965 0.0856,0.663141 -0.0875,1.063741 -0.3687,1.550024 -0.0326,-0.0019 -0.0654,-9.71e-4 -0.0979,-0.0058 -0.40546,-0.05917 -0.61063,-0.218244 -0.8672,-0.651178 -0.22309,-0.899168 -0.001,-1.544526 0.26751,-2.379029 z"
     id="path42"
     style="stroke-width:0.274247" />
  <path
     fill="#f1302f"
     d="m 91.86626,81.725998 c 0.27356,0.07114 0.5613,0.129653 0.80044,0.341108 0.23703,0.209515 0.40127,0.533164 0.4315,0.925358 0.0533,0.690947 -0.23517,1.189838 -0.51873,1.701017 -0.15842,-0.0569 -0.30124,-0.117044 -0.44082,-0.240877 -0.31915,-0.282911 -0.56247,-0.662172 -0.62294,-1.20245 -0.0679,-0.606881 0.12002,-1.047897 0.35055,-1.524156 z"
     id="path43"
     style="stroke-width:0.274247" />
  <path
     fill="#f1302f"
     d="m 78.248092,83.856391 c 0.115844,0.05205 0.120961,0.04882 0.248669,0.139029 0.368933,0.259631 0.745308,0.656352 0.813233,1.258061 0.07863,0.69709 -0.232153,1.226697 -0.494546,1.768267 -0.167718,-0.04268 -0.322176,-0.08406 -0.471518,-0.206605 -0.312406,-0.256719 -0.532928,-0.625635 -0.576195,-1.143279 -0.06327,-0.758523 0.18749,-1.223141 0.480357,-1.815473 z"
     id="path44"
     style="stroke-width:0.274247" />
  <path
     fill="#f1302f"
     d="m 88.040441,63.815372 c 0.247506,0.03168 0.536185,0.05368 0.74717,0.257045 0.286586,0.276766 0.441974,0.562586 0.513156,1.041432 0.09979,0.670901 -0.130499,1.145219 -0.405221,1.647991 -0.249599,0.05334 -0.42197,0.02846 -0.654588,-0.125775 -0.254019,-0.168775 -0.37847,-0.411916 -0.467795,-0.775981 -0.177023,-0.721339 0.05304,-1.399677 0.267278,-2.044712 z"
     id="path45"
     style="stroke-width:0.274247" />
  <path
     fill="#393a72"
     d="m 113.29017,54.110106 c 0.2275,0.0291 0.48268,0.04656 0.69134,0.184618 0.32078,0.211779 0.50641,0.560971 0.59341,1.030116 0.11422,0.616906 -0.10119,1.225082 -0.32613,1.73335 -0.11864,0.02069 -0.32171,0.07791 -0.4457,0.04623 -0.27309,-0.06919 -0.50547,-0.212749 -0.65156,-0.558384 -0.29706,-0.701616 -0.027,-1.743049 0.13864,-2.435936 z"
     id="path46"
     style="stroke-width:0.274247" />
  <path
     fill="#2e5f9d"
     d="m 123.05781,58.40775 c 0.11049,-0.01132 0.22098,-0.02619 0.33171,-0.02942 0.41546,-0.01229 0.54038,0.115104 0.82905,0.486282 0.26217,0.8303 0.0958,1.609514 -0.10049,2.435936 -0.26425,0.04365 -0.48594,0.02199 -0.72344,-0.167484 -0.28403,-0.226327 -0.4543,-0.558059 -0.54037,-0.990022 -0.13515,-0.677044 -0.0212,-1.130024 0.20354,-1.735292 z"
     id="path47"
     style="stroke-width:0.274247" />
  <path
     fill="#147ae3"
     d="m 118.78228,96.181232 c 0.25379,0.01967 0.57364,0.01124 0.79905,0.190776 0.24192,0.192701 0.38592,0.588771 0.44965,0.949926 0.11515,0.650525 -0.0821,1.487298 -0.3331,2.029198 -0.13237,-0.03556 -0.30241,-0.06691 -0.42896,-0.142263 -0.34101,-0.202419 -0.64179,-0.681894 -0.74088,-1.182081 -0.14097,-0.710994 0.006,-1.231221 0.25424,-1.845556 z"
     id="path48"
     style="stroke-width:0.274247" />
  <path
     fill="#2f538e"
     d="m 126.38565,57.701607 c 0.13585,0.02781 0.31334,0.04915 0.44406,0.121248 0.28892,0.159076 0.52898,0.403834 0.63738,0.824803 0.19912,0.773395 -0.10654,1.629885 -0.32916,2.320509 -0.18749,-0.06401 -0.36381,-0.121248 -0.53292,-0.255751 -0.33125,-0.263511 -0.54526,-0.614965 -0.63458,-1.141986 -0.11655,-0.686421 0.16608,-1.316259 0.41522,-1.868823 z"
     id="path49"
     style="stroke-width:0.274247" />
  <path
     fill="#2f538e"
     d="m 119.67066,51.24059 c 0.0493,0.0139 0.0989,0.02457 0.14748,0.04171 0.34822,0.122217 0.71622,0.362124 0.87209,0.84388 0.26169,0.808637 -0.0917,1.690993 -0.3387,2.40716 -0.14631,0 -0.31241,-0.03395 -0.44895,-0.107025 -0.29589,-0.158429 -0.47478,-0.431316 -0.57946,-0.840323 -0.21377,-0.833533 0.0433,-1.644435 0.34754,-2.345406 z"
     id="path50"
     style="stroke-width:0.274247" />
  <path
     fill="#2e5f9d"
     d="m 115.44375,78.898191 c 0.13469,0.06273 0.26937,0.122541 0.39661,0.211779 0.35335,0.248637 0.67692,0.663464 0.7495,1.228314 0.0919,0.716813 -0.17028,1.199862 -0.43826,1.765681 -0.18353,-0.03168 -0.44662,-0.04785 -0.61317,-0.173303 -0.27147,-0.204342 -0.43965,-0.503417 -0.52642,-0.91113 -0.16213,-0.759816 0.13445,-1.520925 0.43174,-2.121341 z"
     id="path51"
     style="stroke-width:0.274247" />
  <path
     fill="#f1302f"
     d="m 75.7514,54.981792 c 0.250065,0.03944 0.470587,0.06143 0.696459,0.235057 0.26123,0.200463 0.469424,0.533488 0.545025,0.939585 0.140501,0.755613 -0.08677,1.299769 -0.363117,1.924758 -0.143526,0.01325 -0.303334,0.03944 -0.44686,-9.71e-4 -0.267744,-0.07533 -0.561308,-0.358243 -0.668545,-0.709053 -0.259136,-0.847112 -0.0107,-1.608545 0.237038,-2.389376 z"
     id="path52"
     style="stroke-width:0.274247" />
  <path
     fill="#2f538e"
     d="m 131.25342,48.024148 c 0.22959,0.02134 0.43708,0.07468 0.66319,0.131916 0.27565,0.284204 0.45361,0.602356 0.49431,1.085081 0.0644,0.763372 -0.12375,1.376074 -0.46174,1.95612 -0.15772,-0.03298 -0.32637,-0.05885 -0.4778,-0.134502 -0.2838,-0.142264 -0.53572,-0.466883 -0.63039,-0.868777 -0.1882,-0.800878 0.11212,-1.51866 0.41243,-2.169838 z"
     id="path53"
     style="stroke-width:0.274247" />
  <path
     fill="#2e5f9d"
     d="m 128.56319,66.59371 c 0.16446,0.04461 0.39661,0.07242 0.54316,0.195289 0.31915,0.267067 0.52176,0.742032 0.56317,1.251916 0.0633,0.780185 -0.13817,1.38642 -0.47617,1.98231 -0.15585,-0.06014 -0.37289,-0.126743 -0.51245,-0.251871 -0.30427,-0.27321 -0.50596,-0.694503 -0.56015,-1.193718 -0.0828,-0.763048 0.11956,-1.389976 0.44244,-1.983926 z"
     id="path54"
     style="stroke-width:0.274247" />
  <path
     fill="#147ae3"
     d="m 135.71075,37.277169 c 0.15748,0.05141 0.33125,0.09636 0.47966,0.193349 0.26797,0.174596 0.48687,0.529607 0.55572,0.929884 0.13724,0.799585 -0.15585,1.500879 -0.46593,2.131364 -0.29101,-0.086 -0.55736,-0.150024 -0.7916,-0.426143 -0.25774,-0.30425 -0.36963,-0.623372 -0.3915,-1.095751 -0.0342,-0.741386 0.29008,-1.210855 0.61365,-1.732703 z"
     id="path55"
     style="stroke-width:0.274247" />
  <path
     fill="#f1302f"
     d="m 105.09968,94.218977 c 0.17702,0.06691 0.40452,0.132567 0.56084,0.264475 0.25752,0.217282 0.46013,0.610768 0.51781,1.026565 0.11421,0.823834 -0.12584,1.531919 -0.47338,2.175656 -0.21121,-0.06302 -0.41871,-0.110246 -0.61341,-0.24798 -0.25378,-0.180097 -0.47012,-0.645693 -0.52433,-1.016869 -0.12189,-0.836124 0.20866,-1.546782 0.53247,-2.201847 z"
     id="path56"
     style="stroke-width:0.274247" />
  <path
     fill="#393a72"
     d="m 108.0416,59.629275 c 0.30543,0.02587 0.6397,0.05076 0.90931,0.273211 0.27449,0.226328 0.43732,0.567436 0.52316,0.986789 0.12771,0.624989 -0.0884,1.357321 -0.28543,1.906328 -0.23075,0.02264 -0.56479,0.03201 -0.78508,-0.08083 -0.28636,-0.146143 -0.50013,-0.408684 -0.61481,-0.806374 -0.21541,-0.745267 -0.004,-1.614689 0.25285,-2.279123 z"
     id="path57"
     style="stroke-width:0.274247" />
  <path
     fill="#f1302f"
     d="m 93.72279,89.760964 c 0.22959,-0.02426 0.55502,-0.06143 0.77717,0.02327 0.28775,0.109285 0.53898,0.351456 0.67646,0.727808 0.27681,0.757227 0.0484,1.654131 -0.14888,2.384847 -0.22122,0.06307 -0.48873,0.150674 -0.7139,0.126746 -0.28449,-0.03036 -0.51805,-0.282591 -0.65901,-0.617231 -0.29124,-0.690945 -0.0933,-1.927019 0.0682,-2.645448 z"
     id="path59"
     style="stroke-width:0.274247" />
  <path
     fill="#f1302f"
     d="m 88.24998,55.723177 c 0.23517,0.09733 0.45849,0.223096 0.66738,0.405127 0.31171,0.271918 0.5734,0.662172 0.6297,1.185312 0.10002,0.932149 -0.26984,1.534505 -0.63087,2.245821 -0.23959,0.08795 -0.42848,0.08116 -0.65342,-0.09829 -0.2182,-0.173949 -0.34637,-0.480139 -0.41732,-0.808638 -0.24076,-1.113857 0.02,-1.976813 0.40453,-2.929332 z"
     id="path60"
     style="stroke-width:0.274247" />
  <path
     fill="#f1302f"
     d="m 94.46996,66.103871 c 0.29937,0.03751 0.57596,0.07436 0.82719,0.339492 q 0.047,0.04947 0.0898,0.105728 0.0428,0.05625 0.0812,0.118659 0.0381,0.06208 0.0714,0.129978 0.0332,0.06758 0.0609,0.139676 0.0277,0.07242 0.0498,0.148406 0.0221,0.07598 0.0381,0.154874 0.0159,0.07856 0.0258,0.1594 0.01,0.08083 0.0132,0.162632 c 0.0449,0.94411 -0.30008,1.694873 -0.71181,2.391963 -0.23378,-0.13321 -0.46221,-0.283233 -0.66273,-0.501801 -0.28659,-0.312333 -0.48385,-0.756906 -0.51176,-1.268083 -0.0452,-0.828037 0.27611,-1.464019 0.62877,-2.080925 z"
     id="path61"
     style="stroke-width:0.274247" />
  <path
     fill="#f1302f"
     d="m 81.961843,73.193757 c 0.269604,0.08116 0.555259,0.255104 0.789506,0.457182 0.305195,0.263834 0.523158,0.692886 0.569217,1.192426 0.07746,0.845496 -0.241924,1.448498 -0.586198,2.094179 -0.273559,0.06208 -0.495012,0.05044 -0.744146,-0.149376 -0.267279,-0.214365 -0.435694,-0.598799 -0.487335,-1.014273 -0.127475,-1.026882 0.06723,-1.728822 0.458956,-2.580138 z"
     id="path63"
     style="stroke-width:0.274247" />
  <path
     fill="#393a72"
     d="m 113.20852,73.885674 c 0.35381,0.08244 0.6918,0.183972 0.95722,0.547389 0.23472,0.321386 0.36545,0.749793 0.36265,1.208269 -0.005,0.8206 -0.30915,1.352472 -0.71785,1.891455 -0.34498,-0.0107 -0.59388,-0.02975 -0.87628,-0.360185 -0.24052,-0.281616 -0.37917,-0.693857 -0.39777,-1.12679 -0.0397,-0.915011 0.23355,-1.525126 0.67203,-2.160138 z"
     id="path64"
     style="stroke-width:0.274247" />
  <path
     fill="#c22d4d"
     d="m 102.47714,44.131953 c 0.3373,0.118336 0.7909,0.273209 1.05307,0.602032 0.22633,0.283881 0.35079,0.698706 0.37963,1.112887 0.0474,0.684157 -0.25798,1.426835 -0.54293,1.946098 -0.26496,0.06726 -0.54782,0.06726 -0.79626,-0.102496 -0.29705,-0.203372 -0.46431,-0.453303 -0.55991,-0.896905 -0.20819,-0.968037 0.15074,-1.84231 0.4664,-2.661616 z"
     id="path65"
     style="stroke-width:0.274247" />
  <path
     fill="#147ae3"
     d="m 132.4414,91.006738 c 0.37172,0.01811 0.7039,0.06176 0.99258,0.433903 0.27891,0.359861 0.41545,0.845818 0.41755,1.3667 0.004,0.878148 -0.19121,1.284246 -0.61783,1.886929 -0.32358,-0.0086 -0.61644,-0.01946 -0.89465,-0.295521 -0.261,-0.258666 -0.39313,-0.61238 -0.44361,-1.042081 -0.10072,-0.857787 0.22192,-1.665127 0.54596,-2.34993 z"
     id="path66"
     style="stroke-width:0.274247" />
  <path
     fill="#f1302f"
     d="m 98.53752,67.071585 c 0.36149,9.71e-4 0.73763,0.100226 1.02562,0.42388 0.21446,0.240878 0.33403,0.568083 0.3745,0.943465 0.10585,0.982263 -0.23261,1.716536 -0.65063,2.453394 -0.20028,-0.02522 -0.41336,-0.101847 -0.59922,-0.213717 -0.30217,-0.182033 -0.53479,-0.472055 -0.6525,-0.906929 -0.24797,-0.916951 0.20122,-1.925405 0.50223,-2.700093 z"
     id="path67"
     style="stroke-width:0.274247" />
  <path
     fill="#f1302f"
     d="m 104.15639,19.732563 c 0.19796,0.07049 0.37056,0.167809 0.54921,0.303604 0.35335,0.268362 0.72647,0.662822 0.79997,1.251271 0.12004,0.959307 -0.35962,1.578152 -0.76391,2.241624 -0.0886,0.04591 -0.14283,0.0844 -0.24588,0.07922 -0.27542,-0.01391 -0.58899,-0.176541 -0.76438,-0.478845 -0.23937,-0.412893 -0.2845,-0.963836 -0.27193,-1.474368 0.0224,-0.899498 0.24029,-1.314645 0.69692,-1.922492 z"
     id="path68"
     style="stroke-width:0.274247" />
  <path
     fill="#f1302f"
     d="m 86.40997,29.243775 c 0.33101,0.06531 0.6597,0.200786 0.92651,0.497599 0.26426,0.29358 0.37522,0.598153 0.42221,1.060508 0.0982,0.962218 -0.31078,1.746282 -0.68832,2.482495 -0.37894,-0.07534 -0.69181,-0.198198 -0.99863,-0.524435 -0.28798,-0.306512 -0.42127,-0.694826 -0.4457,-1.191778 -0.047,-0.949607 0.368,-1.648961 0.78393,-2.324389 z"
     id="path69"
     style="stroke-width:0.274247" />
  <path
     fill="#f1302f"
     d="m 103.205,85.207891 c 0.46384,0.01713 0.88442,0.127714 1.21288,0.61238 0.25797,0.38023 0.38103,0.858105 0.3552,1.383187 -0.0412,0.840323 -0.33636,1.302032 -0.78717,1.813857 -0.35591,0.06564 -0.67785,0.0071 -0.95676,-0.344018 -0.23658,-0.29746 -0.35614,-0.729746 -0.38546,-1.16268 -0.0647,-0.955104 0.11631,-1.591732 0.56131,-2.302726 z"
     id="path70"
     style="stroke-width:0.274247" />
  <path
     fill="#147ae3"
     d="m 133.61496,75.532048 c 0.31426,-0.03007 0.6704,-0.0019 0.94047,0.248313 0.29311,0.271595 0.4764,0.730393 0.52456,1.209562 0.0991,0.984203 -0.16563,1.714596 -0.58178,2.473765 -0.33753,0.01617 -0.69715,0.0049 -0.98026,-0.28873 -0.32101,-0.332702 -0.52827,-0.949608 -0.53478,-1.498938 -0.0112,-0.94896 0.15004,-1.491824 0.63179,-2.143972 z"
     id="path71"
     style="stroke-width:0.274247" />
  <path
     fill="#f1302f"
     d="m 90.505729,80.670662 c 0.426855,0.258661 0.812768,0.530255 1.075162,1.089608 0.205402,0.438107 0.296123,0.95381 0.207961,1.470486 -0.141898,0.830946 -0.511063,1.172055 -1.018636,1.578476 -0.36777,-0.193349 -0.628767,-0.414827 -0.893952,-0.827068 -0.256345,-0.398014 -0.385215,-0.874918 -0.336133,-1.411317 0.08281,-0.905958 0.485241,-1.346003 0.965598,-1.900185 z"
     id="path72"
     style="stroke-width:0.274247" />
  <path
     fill="#863764"
     d="m 106.22974,82.61773 c 0.13259,0.02426 0.10398,0.01487 0.26146,0.06693 0.41337,0.136766 0.69693,0.367944 0.91071,0.890763 0.20493,0.501154 0.2575,1.012978 0.14514,1.569099 -0.14282,0.705819 -0.40568,1.002632 -0.85812,1.335011 -0.10794,-0.01132 -0.2161,-0.02005 -0.32311,-0.04107 -0.35963,-0.06952 -0.65924,-0.305867 -0.86743,-0.720694 -0.20982,-0.418383 -0.26076,-0.942494 -0.18354,-1.435566 0.12166,-0.775981 0.45198,-1.243509 0.91489,-1.66448 z"
     id="path73"
     style="stroke-width:0.274247" />
  <path
     fill="#c22d4d"
     d="m 106.61007,66.739207 c 0.19028,0.08536 0.37382,0.172655 0.55898,0.277413 0.43384,0.245728 0.80649,0.533488 0.97002,1.184665 0.24239,0.966098 -0.29822,2.071547 -0.61085,2.890856 -0.2845,-0.0734 -0.62877,-0.131594 -0.8793,-0.344343 -0.32613,-0.276767 -0.57434,-0.638244 -0.6625,-1.167852 -0.17144,-1.031409 0.25751,-1.999123 0.62365,-2.840739 z"
     id="path74"
     style="stroke-width:0.274247" />
  <path
     fill="#f1302f"
     d="m 98.55743,5.7194758 c 0.40406,0.021662 0.80882,0.056577 1.12239,0.4571835 0.28309,0.3614776 0.41684,0.8720091 0.42057,1.3996758 0.007,1.0097467 -0.328,1.7947816 -0.8044,2.5128879 C 98.95032,9.997072 98.65909,9.9317631 98.38204,9.6142575 98.03637,9.2175367 97.82189,8.6594759 97.80747,8.032548 97.78607,7.0939331 98.09638,6.3638643 98.55743,5.7194758 Z"
     id="path75"
     style="stroke-width:0.274247" />
  <path
     fill="#2e5f9d"
     d="m 132.97027,80.448582 c 0.3715,-0.0039 0.77206,0.06887 1.0968,0.335612 0.34776,0.28582 0.5634,0.697414 0.64435,1.248684 0.13888,0.945404 -0.20191,1.780877 -0.56293,2.540369 -0.43501,0.03847 -0.92071,0.0093 -1.27847,-0.379907 -0.24775,-0.26933 -0.39592,-0.715521 -0.43989,-1.142309 -0.0937,-0.910162 0.15888,-1.88014 0.54014,-2.602449 z"
     id="path76"
     style="stroke-width:0.274247" />
  <path
     fill="#c22d4d"
     d="m 106.41095,31.884377 c 0.4022,-0.03977 0.7488,0.0055 1.08051,0.354688 0.35405,0.372795 0.50618,0.926652 0.52246,1.525774 0.0254,0.939907 -0.23936,1.606605 -0.68901,2.273626 -0.39685,0.08406 -0.74973,0.101847 -1.08889,-0.270947 -0.34288,-0.376351 -0.49245,-1.010715 -0.4978,-1.598846 -0.01,-1.032054 0.17097,-1.551315 0.67273,-2.284295 z"
     id="path77"
     style="stroke-width:0.274247" />
  <path
     fill="#863764"
     d="m 112.21687,25.050566 c 0.30915,0.01649 0.6183,0.156812 0.88441,0.37538 0.39708,0.326236 0.66506,0.734919 0.76299,1.377692 0.14935,0.981616 -0.17144,1.782493 -0.53642,2.585635 -0.40941,0.06175 -0.82742,0.136443 -1.19217,-0.204019 -0.31961,-0.298429 -0.50408,-0.809284 -0.54897,-1.331132 -0.0903,-1.051778 0.19935,-1.972932 0.63016,-2.803556 z"
     id="path78"
     style="stroke-width:0.274247" />
  <path
     fill="#393a72"
     d="m 111.96169,81.35191 c 0.52804,-0.02393 0.98048,-0.07436 1.37966,0.490484 0.27402,0.387991 0.39498,0.911455 0.37847,1.44947 -0.0267,0.872332 -0.32939,1.570392 -0.78695,2.136213 -0.40476,0.08795 -0.7467,0.124803 -1.1075,-0.223742 -0.29333,-0.283557 -0.46803,-0.729423 -0.51524,-1.216351 -0.10771,-1.10836 0.17678,-1.795104 0.65156,-2.636074 z"
     id="path79"
     style="stroke-width:0.274247" />
  <path
     fill="#147ae3"
     d="m 128.31103,94.464709 c 0.41662,0.0427 0.74066,0.07761 1.02515,0.567757 0.27868,0.479811 0.37684,1.065036 0.32241,1.671912 -0.0963,1.070852 -0.42593,1.706189 -1.03934,2.329248 -0.45337,-0.247678 -0.84859,-0.578751 -1.1089,-1.172061 -0.23307,-0.531221 -0.30798,-1.164937 -0.19051,-1.768268 0.14818,-0.761755 0.52781,-1.226054 0.99119,-1.628588 z"
     id="path80"
     style="stroke-width:0.274247" />
  <path
     fill="#393a72"
     d="m 108.83646,76.173526 c 0.43942,0.01908 0.74531,0.06111 1.08632,0.505681 0.26636,0.347576 0.38941,0.925358 0.395,1.419723 0.0126,1.12873 -0.29241,1.906328 -0.85209,2.679076 -0.43918,-0.02975 -0.75647,-0.119953 -1.06888,-0.599768 -0.31984,-0.491455 -0.42895,-1.14813 -0.39661,-1.796721 0.0495,-0.989699 0.31334,-1.564249 0.83626,-2.207991 z"
     id="path81"
     style="stroke-width:0.274247" />
  <path
     fill="#393a72"
     d="m 127.60224,32.494169 c 0.33823,0.09506 0.71228,0.259307 0.98374,0.5697 0.33195,0.379583 0.53386,0.968684 0.56666,1.559077 0.0582,1.041755 -0.25797,1.714271 -0.74275,2.452747 -0.46779,0.04721 -0.79439,0.08148 -1.17565,-0.376027 -0.3352,-0.402217 -0.46687,-1.131964 -0.45198,-1.723326 0.0295,-1.163649 0.22518,-1.68582 0.81998,-2.482171 z"
     id="path82"
     style="stroke-width:0.274247" />
  <path
     fill="#147ae3"
     d="m 144.96943,19.140543 c 0.0619,0.01552 0.12399,0.02748 0.18541,0.04656 0.38916,0.122862 0.61923,0.353071 0.81718,0.82739 0.26798,0.642448 0.32265,1.469192 0.15562,2.172101 -0.13445,0.564851 -0.4101,1.14425 -0.79834,1.412288 -0.23983,-0.0016 -0.5548,0.03266 -0.78323,-0.06887 -0.25913,-0.11478 -0.5071,-0.535427 -0.63155,-0.864573 -0.21425,-0.566467 -0.22564,-1.196952 -0.0886,-1.800277 0.20169,-0.887205 0.56062,-1.318199 1.14355,-1.72462 z"
     id="path83"
     style="stroke-width:0.274247" />
  <path
     fill="#147ae3"
     d="m 139.71783,68.985071 c 0.36218,0.190115 0.77043,0.363095 1.08051,0.69321 0.33939,0.361478 0.61063,0.927944 0.63388,1.532564 0.0354,0.921477 -0.35241,1.594642 -0.7681,2.243233 -0.378,0.148083 -0.77718,0.287114 -1.14518,0.0165 -0.32194,-0.236674 -0.48222,-0.720045 -0.53456,-1.200185 -0.13655,-1.256443 0.18587,-2.326327 0.73345,-3.28531 z"
     id="path84"
     style="stroke-width:0.274247" />
  <path
     fill="#147ae3"
     d="m 135.28808,59.513568 c 0.3794,0.0075 0.67715,0.0023 0.99631,0.3382 0.34776,0.365681 0.50663,0.982262 0.51781,1.568451 0.0228,1.174967 -0.33544,2.076075 -0.91839,2.8776 -0.43895,-0.180093 -0.85231,-0.374735 -1.15029,-0.886559 -0.28961,-0.497599 -0.44291,-1.152657 -0.3901,-1.790902 0.0812,-0.979676 0.41103,-1.507344 0.94466,-2.10679 z"
     id="path85"
     style="stroke-width:0.274247" />
  <path
     fill="#393a72"
     d="m 118.37009,58.052739 c 0.40545,-0.05562 0.85045,0.03751 1.16844,0.423557 0.27891,0.339168 0.4243,0.772101 0.44895,1.280693 0.0635,1.314318 -0.3587,2.149146 -0.97025,3.070947 -0.44499,-0.196582 -0.76136,-0.407067 -1.06911,-0.912425 -0.35056,-0.576167 -0.53665,-1.26194 -0.46245,-2.020139 0.0875,-0.894319 0.38661,-1.310116 0.88442,-1.842633 z"
     id="path86"
     style="stroke-width:0.274247" />
  <path
     fill="#f1302f"
     d="m 89.42897,22.717705 c 0.56597,0.043 1.05679,0.220831 1.4327,0.847437 0.29612,0.493717 0.41081,1.107714 0.35498,1.743048 -0.0851,0.966743 -0.42128,1.53903 -0.9442,2.139769 -0.49757,-0.0527 -0.91884,-0.160047 -1.28871,-0.66411 -0.29612,-0.403188 -0.42313,-0.924065 -0.42429,-1.493766 -0.002,-1.006189 0.38847,-1.865266 0.86952,-2.572378 z"
     id="path87"
     style="stroke-width:0.274247" />
  <path
     fill="#c22d4d"
     d="m 106.55867,45.978465 c 0.43987,0.125775 0.89697,0.281617 1.23171,0.724573 0.33636,0.445544 0.49501,1.036258 0.47454,1.677738 -0.0372,1.176904 -0.51037,1.918614 -1.11308,2.663556 -0.41731,-0.06401 -0.76369,-0.239907 -1.07633,-0.639861 -0.34567,-0.441987 -0.48035,-1.078938 -0.47221,-1.71686 0.0144,-1.140046 0.38196,-1.943186 0.95537,-2.709146 z"
     id="path88"
     style="stroke-width:0.274247" />
  <path
     fill="#147ae3"
     d="m 148.5215,58.32761 c 0.49175,0.05399 0.9007,0.243141 1.2473,0.749793 0.3366,0.491454 0.43523,1.081524 0.40382,1.745634 -0.0498,1.047252 -0.4536,1.74499 -0.99816,2.41686 -0.44337,-0.08051 -0.9891,-0.278384 -1.29871,-0.754966 -0.31868,-0.491132 -0.44965,-1.196305 -0.38801,-1.845219 0.10841,-1.143603 0.39173,-1.622125 1.03376,-2.312102 z"
     id="path89"
     style="stroke-width:0.274247" />
  <path
     fill="#147ae3"
     d="m 121.7042,65.042069 c 0.47222,-0.0045 0.83464,0.101523 1.18706,0.557092 0.35264,0.455888 0.49943,1.087343 0.50571,1.742725 0.0112,1.147482 -0.30171,1.996536 -0.86604,2.800323 -0.5092,-0.07403 -0.96374,-0.383465 -1.30266,-0.923094 -0.34195,-0.543835 -0.47664,-1.271641 -0.4257,-1.982633 0.0686,-0.959631 0.38755,-1.583326 0.90163,-2.194413 z"
     id="path90"
     style="stroke-width:0.274247" />
  <path
     fill="#f1302f"
     d="m 86.83054,100.91474 c 0.5106,0.16037 0.96978,0.37181 1.31871,0.94669 q 0.0633,0.10572 0.11817,0.22019 0.0549,0.11477 0.10049,0.23667 0.0458,0.12223 0.0819,0.25025 0.0358,0.12804 0.0619,0.26092 0.0258,0.13289 0.0414,0.26869 0.0156,0.1358 0.0205,0.27321 0.005,0.13741 -7e-4,0.27483 -0.006,0.13741 -0.0219,0.27321 c -0.10816,0.94572 -0.47384,1.58914 -1.01026,2.14979 -0.42453,-0.14679 -0.79997,-0.42323 -1.13075,-0.82643 -0.36638,-0.44683 -0.57062,-0.99454 -0.58132,-1.67644 -0.0188,-1.1756 0.46408,-1.85523 1.00189,-2.65158 z"
     id="path91"
     style="stroke-width:0.274247" />
  <path
     fill="#147ae3"
     d="m 136.87686,44.951951 c 0.13585,0.0049 0.20983,0.0032 0.35196,0.02975 0.70529,0.132886 0.98164,0.661201 1.40245,1.398059 l -0.004,1.930255 c -0.27379,0.709377 -0.53362,1.27746 -0.92814,1.876905 -0.28728,-0.05334 -0.61458,-0.14582 -0.87325,-0.333349 -0.59434,-0.430992 -0.74066,-1.438475 -0.9193,-2.253902 0.24727,-0.959954 0.45779,-1.895659 0.97048,-2.647714 z"
     id="path92"
     style="stroke-width:0.274247" />
  <path
     fill="#393a72"
     d="m 117.32586,40.431814 c 0.51432,0.02199 0.93164,0.191409 1.28708,0.737182 0.30194,0.463972 0.36614,1.17335 0.31194,1.768269 -0.1091,1.199215 -0.50362,1.863972 -1.171,2.577228 -0.532,-0.145495 -0.9735,-0.454272 -1.28173,-1.097044 -0.29077,-0.606558 -0.35497,-1.384157 -0.22307,-2.081894 0.17585,-0.929561 0.50315,-1.40873 1.07678,-1.903741 z"
     id="path93"
     style="stroke-width:0.274247" />
  <path
     fill="#f1302f"
     d="m 76.819118,38.182437 c 0.470122,0.115104 0.942802,0.340139 1.259628,0.861017 0.350788,0.57649 0.504316,1.283926 0.448953,2.033395 -0.07793,1.049191 -0.432437,1.691963 -1.018868,2.312748 -0.51618,-0.05237 -0.994676,-0.250577 -1.340114,-0.817367 -0.486404,-0.797645 -0.331946,-2.143649 -0.282166,-3.100047 0.282864,-0.486281 0.594572,-0.878152 0.932567,-1.289746 z"
     id="path94"
     style="stroke-width:0.274247" />
  <path
     fill="#f1302f"
     d="m 85.7035,88.004982 c 0.44384,0.08181 0.88186,0.185912 1.21962,0.621755 0.36475,0.470439 0.52618,1.319169 0.48524,1.9891 -0.0686,1.118706 -0.3773,1.802213 -0.98653,2.493492 -0.18168,0.0262 -0.40894,0.0782 -0.58899,0.03849 -0.30938,-0.06886 -0.59853,-0.317833 -0.79276,-0.657653 -0.35335,-0.618519 -0.41057,-1.385124 -0.34847,-2.145586 0.0893,-1.098015 0.39546,-1.680001 1.01189,-2.339584 z"
     id="path95"
     style="stroke-width:0.274247" />
  <path
     fill="#f1302f"
     d="m 89.44982,40.250105 c 0.465,0.09118 0.99467,0.330114 1.32756,0.809608 0.31798,0.458153 0.4664,1.028174 0.45406,1.663187 -0.0226,1.147806 -0.48523,2.053764 -1.04841,2.835888 -0.0468,0.01164 -0.0928,0.0291 -0.14027,0.03459 -0.36521,0.04171 -0.83626,-0.318153 -1.09237,-0.677367 -0.39708,-0.556444 -0.48292,-1.335658 -0.46454,-2.085128 0.0284,-1.166235 0.37824,-1.790253 0.96397,-2.580785 z"
     id="path96"
     style="stroke-width:0.274247" />
  <path
     fill="#393a72"
     d="m 109.57758,87.945166 c 0.43407,-0.01552 0.87395,0.165543 1.24893,0.47141 0.38219,0.312332 0.62086,0.86716 0.69692,1.465312 0.17377,1.366374 -0.20749,2.161754 -0.76089,3.198333 l -0.27705,0.220194 c -0.35218,0.0051 -0.5741,0.01909 -0.87023,-0.297145 -0.39987,-0.426786 -0.56502,-1.244801 -0.64039,-1.898565 -0.1526,-1.324342 0.0314,-2.097413 0.60271,-3.159539 z"
     id="path97"
     style="stroke-width:0.274247" />
  <path
     fill="#147ae3"
     d="m 130.03124,72.582671 c 0.46593,-6.46e-4 0.9093,0.164896 1.26265,0.601709 0.41895,0.517968 0.60551,1.221848 0.61574,1.99007 0.0156,1.184018 -0.29845,1.787668 -0.87487,2.606004 -0.0714,0.01455 -0.1426,0.03071 -0.21425,0.04365 -0.41312,0.07468 -0.80067,-0.04656 -1.12214,-0.424203 -0.37057,-0.435197 -0.5127,-1.104482 -0.53619,-1.755336 -0.0495,-1.366698 0.22704,-2.067991 0.86906,-3.061894 z"
     id="path98"
     style="stroke-width:0.274247" />
  <path
     fill="#147ae3"
     d="m 123.18343,89.423088 c 0.47104,-0.0029 0.95838,0.283881 1.30172,0.728453 0.34219,0.442956 0.48571,1.052426 0.48874,1.690347 0.006,1.18014 -0.4129,1.969049 -0.97537,2.787384 -0.0381,0.0022 -0.0763,0.0054 -0.11468,0.0065 -0.55619,0.02259 -0.99654,-0.127714 -1.39501,-0.703881 -0.32753,-0.473666 -0.4357,-1.105766 -0.40779,-1.746599 0.0523,-1.203097 0.47687,-1.990719 1.10239,-2.762174 z"
     id="path99"
     style="stroke-width:0.274247" />
  <path
     fill="#f1302f"
     d="m 82.252382,53.413986 c 0.424296,0.08632 0.806023,0.178475 1.122616,0.623696 0.365211,0.51344 0.498734,1.265173 0.468028,1.970347 -0.05071,1.164941 -0.491289,2.155288 -1.121917,2.885357 -0.416387,-0.216628 -0.821143,-0.481109 -1.227993,-0.730069 -0.236572,-0.56485 -0.405918,-1.182726 -0.589454,-1.783465 0.110029,-0.604295 0.205634,-1.261616 0.400336,-1.824849 0.226338,-0.655705 0.46384,-0.900463 0.948384,-1.141017 z"
     id="path100"
     style="stroke-width:0.274247" />
  <path
     fill="#f1302f"
     d="m 90.99208,86.694219 c 0.48641,0.101522 0.95489,0.259307 1.28824,0.803466 0.35358,0.577135 0.46058,1.340185 0.38801,2.07769 -0.12446,1.26679 -0.53293,1.912794 -1.23241,2.676492 -0.0344,-0.0071 -0.0686,-0.01361 -0.10283,-0.02133 -0.48175,-0.111552 -0.86952,-0.347901 -1.14913,-0.929564 -0.38777,-0.806697 -0.43825,-1.790577 -0.26983,-2.713349 0.1733,-0.947667 0.49547,-1.391917 1.07795,-1.893396 z"
     id="path101"
     style="stroke-width:0.274247" />
  <path
     fill="#f1302f"
     d="m 85.210947,21.086185 c 0.0328,0.0032 0.06583,0.0042 0.0984,0.0097 0.533162,0.08988 1.084699,0.470116 1.408969,1.080232 0.320315,0.602679 0.383355,1.338568 0.279142,2.05991 -0.17237,1.194366 -0.656914,1.793479 -1.361515,2.440133 -0.15725,-0.02488 -0.318919,-0.04337 -0.471517,-0.107987 -0.6939,-0.295195 -1.013518,-1.287802 -1.330344,-2.104528 0.04908,-0.49404 0.108633,-1.009416 0.21052,-1.487942 0.196097,-0.920184 0.583406,-1.425866 1.166348,-1.889516 z"
     id="path102"
     style="stroke-width:0.274247" />
  <path
     fill="#f1302f"
     d="m 103.10963,76.03191 c 0.13725,0.03459 0.27101,0.07922 0.40452,0.136442 0.54108,0.230856 0.87349,0.607207 1.11634,1.330163 q 0.0484,0.145172 0.0861,0.296488 0.0377,0.151317 0.0644,0.306837 0.0267,0.155844 0.0423,0.314273 0.0156,0.158753 0.02,0.318476 0.004,0.160045 -0.003,0.319769 -0.007,0.159722 -0.0256,0.317829 -0.0184,0.158106 -0.0479,0.312657 -0.0295,0.154548 -0.07,0.304572 c -0.2282,0.855842 -0.62272,1.398384 -1.20636,1.78896 -0.67645,-0.30425 -1.22241,-0.693534 -1.57413,-1.605958 -0.25564,-0.662818 -0.3452,-1.440093 -0.17934,-2.165959 0.23285,-1.019122 0.70786,-1.525773 1.37245,-1.974549 z"
     id="path103"
     style="stroke-width:0.274247" />
  <path
     fill="#f1302f"
     d="m 75.288024,65.807059 c 0.151202,0.0025 0.126312,-0.0025 0.319618,0.03234 0.465004,0.08439 0.930938,0.486605 1.202404,1.01589 0.392892,0.765957 0.415921,1.741431 0.292634,2.635427 -0.157018,1.136813 -0.580848,1.540646 -1.22869,2.164019 -0.485241,-0.108962 -0.9542,-0.390578 -1.298708,-0.891733 -0.333342,-0.484989 -0.485474,-1.112564 -0.476634,-1.777969 0.01838,-1.371547 0.491987,-2.280415 1.189376,-3.177967 z"
     id="path104"
     style="stroke-width:0.274247" />
  <path
     fill="#f1302f"
     d="m 99.70386,30.237355 c 0.0742,0.01164 0.14958,0.01487 0.22309,0.0346 0.48245,0.131593 1.02561,0.57164 1.2994,1.145542 0.34661,0.72619 0.37615,1.609193 0.24355,2.4382 -0.19516,1.219261 -0.58619,1.672563 -1.32941,2.304987 -0.49129,-0.07275 -0.94373,-0.290669 -1.27661,-0.825126 -0.60271,-0.968037 -0.50385,-2.396813 -0.46244,-3.581155 0.39568,-0.587482 0.83905,-1.041756 1.30242,-1.517044 z"
     id="path105"
     style="stroke-width:0.274247" />
  <path
     fill="#f1302f"
     d="m 85.64256,67.960084 c 0.0519,0.0039 0.10398,0.0052 0.15585,0.01164 0.55084,0.07049 0.95978,0.369238 1.3136,0.961248 0.41057,0.686743 0.53293,1.555196 0.45244,2.427851 -0.11329,1.228638 -0.53479,1.976491 -1.22892,2.707854 -0.24495,-0.02975 -0.49827,-0.05464 -0.7388,-0.129331 -0.45384,-0.140323 -0.84999,-0.663141 -1.08028,-1.204066 -0.35729,-0.839675 -0.41336,-1.859121 -0.20051,-2.783509 0.23238,-1.008776 0.6611,-1.537414 1.32662,-1.991687 z"
     id="path106"
     style="stroke-width:0.274247" />
  <path
     fill="#2f538e"
     d="m 124.407,47.916803 c 0.6925,0.06854 1.25055,0.259631 1.71253,1.030762 0.40523,0.676398 0.55014,1.57977 0.48757,2.444665 -0.10026,1.378985 -0.61621,2.194735 -1.35733,3.048315 -0.23448,0.05401 -0.57015,0.123187 -0.80323,0.0569 -0.38823,-0.110577 -0.73228,-0.537366 -0.95211,-0.982908 -0.45058,-0.914042 -0.495,-2.204758 -0.32985,-3.25686 0.17842,-1.137459 0.56108,-1.715566 1.24242,-2.340877 z"
     id="path107"
     style="stroke-width:0.274247" />
  <path
     fill="#147ae3"
     d="m 126.81576,80.044704 c 0.0509,-6.46e-4 0.10188,-0.0055 0.1526,-0.0016 0.78275,0.06273 1.31475,0.952518 1.80535,1.701986 0.12654,1.050485 0.14515,2.069284 0.15353,3.132379 -0.42081,0.739446 -0.8686,1.381571 -1.35803,2.032748 -0.0779,0.0023 -0.15585,0.0107 -0.23378,0.0065 -0.53945,-0.02878 -1.0947,-0.558384 -1.41804,-1.136489 -0.47501,-0.848406 -0.58574,-2.119724 -0.45361,-3.151779 0.16562,-1.294596 0.59016,-1.875613 1.35198,-2.583696 z"
     id="path108"
     style="stroke-width:0.274247" />
  <path
     fill="#f1302f"
     d="m 94.36574,54.397866 c 0.25216,-0.0049 0.51083,9.7e-4 0.7588,0.07081 0.46826,0.132241 0.86232,0.660555 1.11052,1.205359 0.435,0.954781 0.53526,2.180832 0.33497,3.267206 -0.19214,1.042077 -0.5527,1.63926 -1.20589,2.180184 -0.26309,0.03298 -0.54991,0.08181 -0.81137,0.01617 -0.49687,-0.124157 -0.95165,-0.643742 -1.21566,-1.225081 -0.38755,-0.853903 -0.45315,-1.984896 -0.29985,-2.954226 0.18935,-1.198569 0.60155,-1.905035 1.32848,-2.560416 z"
     id="path109"
     style="stroke-width:0.274247" />
  <path
     fill="#f1302f"
     d="m 85.66081,9.7933932 c 0.36218,0.1018468 0.77043,0.2706238 1.08958,0.5331648 0.85231,0.700646 1.07865,1.937044 1.29894,3.177321 q -0.0572,0.236351 -0.11817,0.471085 c -0.30217,1.156213 -0.60574,1.988453 -1.42735,2.527437 -0.28542,0.04139 -0.61132,0.114781 -0.89488,0.04009 -0.43058,-0.112841 -0.84045,-0.580369 -1.0854,-1.067944 -0.40614,-0.809284 -0.48174,-1.925728 -0.3438,-2.872748 0.19679,-1.353766 0.67901,-2.057645 1.48108,-2.8084078 z"
     id="path110"
     style="stroke-width:0.274247" />
  <path
     fill="#f1302f"
     d="m 102.23243,57.316851 c 0.0844,0.0016 0.16887,0.0023 0.25309,0.0052 0.67901,0.02522 1.22543,0.285175 1.68834,1.006837 0.42988,0.669608 0.61551,1.54776 0.56829,2.437875 -0.0686,1.290393 -0.54665,2.332795 -1.24172,3.151133 -0.31357,0.09345 -0.59783,0.184618 -0.91722,0.07533 -0.53501,-0.183325 -0.95629,-0.667343 -1.22892,-1.325312 -0.43057,-1.038199 -0.48524,-2.399076 -0.22052,-3.527483 0.20936,-0.893672 0.50595,-1.391269 1.09866,-1.823556 z"
     id="path111"
     style="stroke-width:0.274247" />
  <path
     fill="#147ae3"
     d="m 131.02103,56.960868 c 0.22145,0.02748 0.43663,0.06531 0.65366,0.136444 0.78067,0.256074 1.13192,1.066651 1.51202,1.970669 -0.027,0.74656 0.0263,1.516721 -0.0609,2.256491 -0.1512,1.282633 -0.74624,2.039214 -1.48503,2.739214 -0.2745,0 -0.56759,-0.03103 -0.82813,-0.156489 -0.57759,-0.278383 -1.01793,-0.876859 -1.25265,-1.65672 -0.33985,-1.128407 -0.28007,-2.476352 0.0875,-3.576953 0.30636,-0.917598 0.71018,-1.348914 1.37361,-1.712656 z"
     id="path112"
     style="stroke-width:0.274247" />
  <path
     fill="#f1302f"
     d="m 83.358715,78.963827 c 0.585733,-0.08924 1.118195,-0.09506 1.636235,0.356628 0.80393,0.70097 1.00189,2.027574 1.19589,3.22 -0.31171,1.536767 -0.63621,2.332148 -1.55156,3.309561 -0.19378,0.08665 -0.36126,0.168777 -0.56782,0.138707 -0.514554,-0.07436 -1.054461,-0.39769 -1.38571,-0.9606 -0.460118,-0.781479 -0.611786,-1.972286 -0.543163,-2.954228 0.09584,-1.368636 0.462678,-2.244849 1.216128,-3.110068 z"
     id="path115"
     style="stroke-width:0.274247" />
  <path
     fill="#f1302f"
     d="m 85.082933,50.297126 c 0.482915,0.02878 1.02887,0.157784 1.446187,0.514735 0.808582,0.691594 1.013518,2.001386 1.241949,3.183788 -0.323572,1.761155 -0.652494,2.66776 -1.695787,3.796813 -0.08281,-6.46e-4 -0.165857,-0.0013 -0.248669,-0.0077 -0.638537,-0.04785 -1.295916,-0.445542 -1.716955,-1.125819 -0.493616,-0.797645 -0.656216,-1.981341 -0.556889,-3.00402 0.144224,-1.484711 0.711347,-2.450484 1.530164,-3.357737 z"
     id="path116"
     style="stroke-width:0.274247" />
  <path
     fill="#f1302f"
     d="m 89.73548,68.987937 c 0.26379,0.09408 0.55619,0.209839 0.76856,0.454919 0.35405,0.40836 0.35964,0.932471 0.35777,1.51381 l -0.14677,0.190116 0.14607,0.108637 -0.0623,0.218245 c 0.73229,0.263834 1.35268,0.450069 1.84304,1.326282 0.44733,0.799584 0.63784,1.759538 0.51711,2.763141 -0.16074,1.337922 -0.7481,2.208961 -1.51504,2.963927 -0.1198,0.07728 -0.20378,0.138384 -0.33614,0.189469 -0.37102,0.142586 -0.7046,0.09248 -1.04375,-0.159076 -0.84627,-0.627253 -1.17217,-2.130717 -1.43596,-3.317969 0.23448,-1.136167 0.43035,-2.268776 1.03515,-3.148222 0.0277,-0.04042 0.0568,-0.07954 0.0851,-0.119306 l -0.0207,-0.29067 c -0.20982,-0.283233 -0.45686,-0.559677 -0.56665,-0.945406 -0.15214,-0.533809 0.19028,-1.303647 0.37451,-1.747897 z"
     id="path117"
     style="stroke-width:0.274247" />
  <path
     fill="#147ae3"
     d="m 124.71638,70.860316 c 0.31148,0.0624 0.63714,0.132239 0.92698,0.308452 0.73856,0.449423 1.28941,1.337922 1.56343,2.381617 0.3145,1.198246 0.23774,2.561385 -0.14957,3.709192 -0.40104,1.188546 -0.90512,1.787991 -1.77767,2.229331 -0.23471,-0.02426 -0.47594,-0.04592 -0.70623,-0.114135 -0.6083,-0.180093 -1.17077,-0.818984 -1.50202,-1.533856 -0.47872,-1.033026 -0.56503,-2.388084 -0.34241,-3.559493 0.29566,-1.556166 1.00887,-2.624434 1.98749,-3.421108 z"
     id="path118"
     style="stroke-width:0.274247" />
  <path
     fill="#393a72"
     d="m 113.71098,62.501701 c 0.29984,-0.0236 0.61085,-0.0569 0.91047,-0.02975 0.64086,0.05756 1.32662,0.773395 1.69416,1.470163 0.47477,0.900137 0.6711,2.099353 0.54967,3.198984 -0.17074,1.544849 -0.84906,2.697506 -1.72649,3.60799 -0.38196,0.09053 -0.77462,0.168776 -1.16263,0.09926 -0.5962,-0.107024 -1.14588,-0.645358 -1.48178,-1.324665 -0.5392,-1.090577 -0.64365,-2.648684 -0.43592,-3.914827 0.24215,-1.475011 0.73763,-2.341202 1.65252,-3.10716 z"
     id="path119"
     style="stroke-width:0.274247" />
  <path
     fill="#f1302f"
     d="m 96.12457,75.404011 c 0.32427,0.02458 0.6418,0.07114 0.95676,0.188499 0.62342,0.231824 1.16007,0.890762 1.4727,1.66448 0.4685,1.159123 0.50665,2.670024 0.23518,3.925498 -0.3566,1.649607 -1.04422,2.491547 -2.10217,3.24231 -0.0326,-0.01325 -0.0654,-0.02587 -0.0979,-0.03977 -0.95629,-0.406743 -1.74045,-1.153949 -2.19824,-2.416211 -0.43569,-1.202125 -0.50246,-2.706559 -0.15167,-3.963649 0.35451,-1.269701 1.01375,-2.045683 1.88537,-2.601155 z"
     id="path120"
     style="stroke-width:0.274247" />
  <path
     fill="#2e5f9d"
     d="m 110.95027,105.35594 c 0.007,-0.42195 0.0316,-0.23248 -0.0709,-0.6292 -0.16982,-0.6557 -0.30172,-1.32369 -0.43896,-1.99362 -0.31543,-0.20144 -0.60434,-0.3243 -0.77369,-0.77566 -0.0149,-0.50795 0.1868,-1.01265 0.42779,-1.38577 0.16958,-0.26223 0.1626,-0.27774 0.42546,-0.29198 0.3345,0.42163 0.45291,1.29009 0.65924,1.85137 l 0.25518,0.02 c 0.14679,-0.14387 0.27263,-0.27288 0.39545,-0.45717 0.0307,-0.0459 0.0596,-0.094 0.0893,-0.1413 0.88674,0.41417 1.75697,0.64438 2.68999,0.70129 0.42709,0.83774 0.84394,1.67094 1.41735,2.32893 -0.47059,0.79245 -0.95722,1.41455 -1.52574,2.06765 0.31217,0.72038 0.61643,1.42264 0.85556,2.19797 -0.63318,0.64827 -1.34708,2.69912 -1.62693,3.75542 l -0.14329,-0.17298 -0.30799,-0.52895 c -0.19912,-0.0893 -0.37637,-0.17201 -0.56037,-0.31493 -0.18028,-0.13999 -0.1419,-0.17071 -0.19331,-0.42775 0.16725,-0.37862 0.29938,-0.62985 0.28356,-1.09479 -0.15841,-0.35566 -0.2382,-0.47852 -0.51595,-0.6447 -0.56596,-0.022 -1.07795,0.36439 -1.59087,0.66314 0.31217,-0.72782 0.80974,-1.59109 0.86441,-2.43755 -0.23471,-0.62336 -0.51804,-1.42555 -0.60295,-2.12426 -0.007,-0.0546 -0.008,-0.11025 -0.0123,-0.16521 z"
     id="path122"
     style="stroke-width:0.274247" />
  <path
     fill="#2f538e"
     d="m 110.95027,105.35594 c 0.004,0.0549 0.006,0.11057 0.0123,0.16521 0.0849,0.6987 0.36824,1.50088 0.60295,2.12426 -0.0547,0.84645 -0.55224,1.70974 -0.86441,2.43754 0.51292,-0.29875 1.02491,-0.68513 1.59088,-0.66314 0.27774,0.16619 0.35753,0.28906 0.51594,0.64471 0.0159,0.46494 -0.11631,0.71617 -0.28356,1.09478 0.0514,0.25704 0.013,0.28776 0.19331,0.42776 0.184,0.14291 0.36126,0.22569 0.56037,0.31493 l 0.30799,0.52895 -0.13213,0.1028 c -1.62251,1.28846 -2.89307,3.08906 -4.77309,3.683 -0.57433,-0.83418 -0.69297,-1.27746 -0.78974,-2.4049 l -0.13352,-2.24226 c -0.001,-0.7886 -0.23053,-1.87819 0.003,-2.59436 0.0875,-0.27968 0.17027,-0.56194 0.25611,-0.84259 0.184,-0.60235 0.19587,-0.92697 0.12329,-1.57977 0.12608,-0.0581 0.25216,-0.11607 0.3815,-0.15907 0.3459,-0.1151 0.58433,0.13257 0.86696,0.37182 l 0.0963,0.0828 c 0.29636,-0.27256 0.41523,-0.7915 0.57504,-1.23122 0.28542,-0.12351 0.59667,-0.18041 0.89023,-0.26124 z"
     id="path123"
     style="stroke-width:0.274247" />
  <path
     fill="#2e5f9d"
     d="m 107.75758,111.5696 c -0.001,-0.78858 -0.23053,-1.8782 0.003,-2.59436 0.0351,0.0382 0.0668,0.0833 0.10491,0.11511 0.39196,0.32332 0.86766,0.0372 1.22334,0.45588 0.0707,0.34305 0.14446,0.54965 -0.005,0.88721 -0.26286,0.59297 -0.87744,0.90725 -1.32616,1.13616 z"
     id="path124"
     style="stroke-width:0.274247" />
  <path
     fill="#147ae3"
     d="m 145.13598,35.721002 c 0.32333,0.01617 0.72995,0.125775 1.0284,0.297137 0.81719,0.469792 1.4071,1.606282 1.69044,2.733072 q 0.0688,0.279353 0.11747,0.56679 0.0486,0.28776 0.0768,0.58037 0.0281,0.29261 0.0356,0.587805 0.007,0.295197 -0.007,0.59007 -0.0137,0.29455 -0.0481,0.586189 -0.0342,0.291318 -0.0891,0.576814 -0.0549,0.285173 -0.12957,0.561616 -0.0747,0.276767 -0.16865,0.541571 c -0.41824,1.158475 -0.99048,1.847805 -1.87536,2.23709 -0.3387,0.02038 -0.70089,-0.0036 -1.02748,-0.137414 q -0.12794,-0.05109 -0.25123,-0.120276 -0.12352,-0.06919 -0.24122,-0.15552 -0.11771,-0.08633 -0.22844,-0.189146 -0.11072,-0.102495 -0.2133,-0.220507 -0.10259,-0.117692 -0.19587,-0.249609 -0.0933,-0.131916 -0.17655,-0.27612 -0.0831,-0.144526 -0.15516,-0.300046 -0.0721,-0.155519 -0.13236,-0.320416 c -0.49687,-1.338891 -0.52014,-3.206097 -0.19586,-4.623556 0.38265,-1.672563 1.12168,-2.481201 2.18591,-3.265914 z"
     id="path126"
     style="stroke-width:0.274247" />
  <path
     fill="#147ae3"
     d="m 116.79503,86.639254 c 0.26076,-1.098983 0.72088,-2.24679 1.47945,-2.774134 q 0.33753,-0.230208 0.68018,-0.445219 l -0.12399,-0.151964 c -0.84952,-1.059214 -1.34569,-2.190854 -1.40966,-3.815565 -0.054,-1.367991 0.24936,-2.861756 0.91442,-3.898015 0.34241,-0.53381 0.83533,-0.906605 1.35616,-0.91501 0.63505,-0.0107 1.23148,0.442308 1.67066,1.056304 0.57527,0.803787 0.93258,1.904065 0.92024,3.04411 -0.0153,1.434274 -0.4543,3.221294 -1.25451,4.178985 -0.35962,0.430347 -0.6704,0.52314 -1.12936,0.581017 l -0.21284,0.0291 c -0.0484,0.0061 -0.097,0.01099 -0.14562,0.01617 0.99165,0.89755 1.74137,1.480508 1.97562,3.224526 0.16028,1.195659 0.12934,2.581109 -0.40475,3.600555 -0.63923,1.219907 -1.48899,1.500231 -2.49995,1.723972 -0.11724,1.596577 -0.26635,3.103603 -1.22683,4.180594 -0.4443,0.498241 -1.31499,0.76984 -1.60623,1.373819 -0.009,0.39219 -0.0474,0.793762 0.0263,1.17432 0.0312,-0.02594 0.0623,-0.0521 0.0937,-0.07761 0.28612,-0.229561 0.44524,-0.327203 0.78765,-0.314599 0.31753,0.282917 0.44383,0.517655 0.5227,1.039502 0.11886,0.788268 0.14701,1.569748 -0.11818,2.298518 -0.2582,0.28711 -0.28146,0.31944 -0.60853,0.35502 -0.45174,-0.33076 -0.65109,-0.8607 -0.87278,-1.47728 -0.3052,0.61626 -0.54177,1.19081 -0.9998,1.60758 -0.93302,-0.0569 -1.80325,-0.28711 -2.68999,-0.70129 -0.50571,-1.32209 -0.61854,-2.766386 -0.29031,-4.201311 0.24705,-1.07991 0.66506,-1.827429 1.2166,-2.628962 -0.42849,-2.087379 -0.83208,-4.106549 -0.0316,-6.158373 0.39289,-1.00716 0.99607,-1.647021 1.78628,-1.950624 0.69715,-0.268037 1.48433,-0.0721 2.19498,0.02587 z"
     id="path135"
     style="stroke-width:0.274247" />
  <path
     fill="#f1302f"
     d="m 97.51586,88.669739 c 0.51385,-0.65829 1.05422,-1.197921 1.78441,-1.192101 0.55549,0.0045 1.05283,0.438429 1.4106,1.004249 0.71553,1.131317 0.9221,2.481526 1.08447,3.9255 0.63086,-0.351782 1.24358,-0.512474 1.89211,-0.101155 0.30334,0.192375 0.50316,0.510532 0.61202,0.951546 0.2631,1.066008 0.007,2.331505 -0.36684,3.28369 -0.24099,0.613676 -0.50897,1.210208 -0.77136,1.806426 0.5013,0.31168 1.3992,0.808311 1.61158,1.55487 0.0589,0.206936 0.0591,0.496306 0.0768,0.716496 0.0465,0.57132 0.11329,0.98743 0.2931,1.50702 0.35498,0.12319 0.52037,0.12868 0.78555,0.49048 0.13144,0.53478 0.0656,1.0285 0.0232,1.57686 l 0.11794,0.36019 c 0.13678,0.0391 0.26146,0.0773 0.40103,0.086 l 0.14376,1.31335 c -0.35289,0.17879 -0.49734,0.34887 -0.8686,0.10345 -0.28612,-0.18914 -0.57433,-0.66509 -0.83091,-0.93377 l -0.70902,0.87977 c 0.54874,0.16975 1.14053,0.28065 1.63135,0.67413 l 0.14051,0.34046 0.27472,0.30878 c 0.4094,-0.0682 0.69134,-0.77857 1.0833,-1.08087 0.35939,-0.0479 0.49919,0.0786 0.80463,0.3078 0.0726,0.65279 0.0607,0.97741 -0.12329,1.57977 -0.0858,0.28064 -0.16865,0.5629 -0.25611,0.84258 -0.23379,0.71617 -0.004,1.80578 -0.003,2.59438 l 0.13352,2.24225 c -0.01,0.91469 0.0328,1.92346 -0.51851,2.58047 -0.17795,0.21209 -0.38475,0.3883 -0.58248,0.56258 -0.0289,-0.1788 -0.0463,-0.32883 -0.10421,-0.49889 -0.15097,-0.44522 -0.5969,-0.55968 -0.90558,-0.69193 -0.85673,-0.25413 -1.65322,-0.83255 -2.41365,-1.41745 -1.28638,-0.92018 -3.23619,-4.08554 -3.75632,-4.34 0.0507,-0.8678 1.47131,-2.4479 1.93747,-3.15242 -0.33985,-0.24573 -0.67086,-0.51958 -1.00397,-0.78278 -0.0474,0.40061 -0.0735,0.80573 -0.23193,1.15654 -0.10467,0.23247 -0.0905,0.15746 -0.31449,0.22438 -0.16726,-0.14419 -0.23216,-0.28646 -0.30915,-0.53122 -0.17424,-0.55418 -0.22029,-1.05436 -0.0651,-1.62729 l 0.214,-0.0932 c 0.29334,0.16037 0.46571,0.47238 0.67297,0.7873 -0.11561,-1.50993 0.31567,-2.23612 0.95397,-3.37099 -0.38499,-0.6237 -0.78741,-1.27681 -1.12331,-1.95257 l -0.0828,-0.1691 -0.0645,0.35631 c -0.0309,0.0336 -0.07,0.0569 -0.093,0.1015 -0.12492,0.2412 -0.13097,0.45201 -0.30962,0.67316 -0.17912,0.22181 -0.44477,0.38121 -0.68576,0.30814 -0.27449,-0.0833 -0.47059,-0.30683 -0.629,-0.61951 -0.29194,-0.5768 -0.33055,-1.12031 -0.23192,-1.79994 0.0777,-0.536072 0.19214,-0.770486 0.51944,-1.062126 0.40452,-0.05924 0.75484,0.195284 1.12377,0.395421 -0.0232,-0.849376 -0.16237,-1.720728 -0.25657,-2.561705 -1.0526,0.501808 -1.49806,0.167806 -2.53066,-0.225356 -0.16795,-1.346331 -0.29775,-2.732425 -0.58829,-4.038989 0.2838,-1.109328 0.51711,-2.387434 1.00398,-3.352563 z"
     id="path136"
     style="stroke-width:0.274247" />
  <path
     fill="#c22d4d"
     d="m 102.7521,103.60092 c 0.12096,0.095 0.26913,0.19561 0.37475,0.32656 0.24099,0.29972 0.2696,0.5322 0.30194,0.95995 -0.12934,0.56421 -0.37267,0.86523 -0.66948,1.27617 -0.12445,-0.0484 -0.23704,-0.13806 -0.35312,-0.2163 -0.1191,-0.25058 -0.23262,-0.46106 -0.24588,-0.77404 -0.0305,-0.7165 0.23356,-1.12227 0.59179,-1.57234 z"
     id="path137"
     style="stroke-width:0.274247" />
  <path
     fill="#863764"
     d="m 102.10262,108.94841 c 0.0965,0.0708 0.11539,0.0808 0.21751,0.17588 0.31426,0.29358 0.55944,0.67154 0.5955,1.22153 0.0458,0.69644 -0.21285,1.1533 -0.5127,1.65187 -0.31403,-0.19756 -0.66296,-0.49696 -0.76415,-0.99326 -0.14817,-0.7249 0.21937,-1.46176 0.46384,-2.05602 z"
     id="path138"
     style="stroke-width:0.274247" />
  <path
     fill="#c22d4d"
     d="m 105.97759,107.01718 0.27472,0.30878 c 0.4094,-0.0682 0.69134,-0.77857 1.0833,-1.08088 0.35939,-0.0479 0.49919,0.0786 0.80462,0.3078 0.0726,0.6528 0.0607,0.97742 -0.12328,1.57978 -0.0858,0.28064 -0.16865,0.56291 -0.25611,0.84258 -0.23379,0.71617 -0.004,1.80578 -0.003,2.59436 l 0.13353,2.24226 c -0.01,0.91469 0.0328,1.92347 -0.51851,2.58047 -0.17795,0.2121 -0.38475,0.38831 -0.58248,0.56258 -0.0289,-0.17879 -0.0463,-0.32881 -0.10421,-0.49889 -0.15097,-0.44522 -0.5969,-0.55968 -0.90558,-0.69192 -0.85674,-0.25413 -1.65322,-0.83256 -2.41365,-1.41745 0.15446,-0.47336 0.22029,-0.90564 0.53549,-1.19728 l 0.17074,0.009 c 0.33334,-0.30005 0.33265,-0.69643 0.44826,-1.21312 0.19307,-0.19206 0.47988,-0.40415 0.63993,-0.6363 0.30543,-0.44361 0.0297,-2.71335 0.81649,-4.29117 z"
     id="path139"
     style="stroke-width:0.274247" />
  <path
     fill="#ef733f"
     d="m 99.61035,110.00665 c 0.52014,0.25445 2.46995,3.41981 3.75632,4.34 0.76043,0.58489 1.55692,1.16332 2.41365,1.41745 -1.33127,5.44061 -3.09662,10.5068 -4.97524,15.61987 -4.70912,12.8176 -10.27242,25.00342 -17.203977,35.72975 -0.923959,1.43007 -1.929568,3.78258 -3.120573,4.68402 -0.31264,0.009 -0.343345,0.001 -0.607832,-0.22956 8.050912,-15.86786 14.206692,-30.88375 17.939282,-49.69257 0.77066,-3.88346 1.62926,-7.82997 1.79837,-11.86896 z"
     id="path140"
     style="stroke-width:0.274247" />
  <defs
     id="defs141">
    <linearGradient
       id="gradient_0"
       gradientUnits="userSpaceOnUse"
       x1="420.63303"
       y1="722.33521"
       x2="365.03778"
       y2="522.64563"
       gradientTransform="matrix(0.23261826,0,0,0.32332567,-5.993913,-42.455954)">
      <stop
         offset="0"
         stop-color="#E52B3D"
         id="stop140" />
      <stop
         offset="1"
         stop-color="#EB5B43"
         id="stop141" />
    </linearGradient>
  </defs>
  <path
     fill="url(#gradient_0)"
     d="m 105.78032,115.7641 c 0.30869,0.13224 0.75461,0.2467 0.90559,0.69192 0.0579,0.17008 0.0754,0.3201 0.10421,0.49889 -0.0161,1.98297 0.89116,4.11594 0.94722,6.28513 0.0621,2.40652 -0.0626,4.8722 -0.0884,7.28355 q -0.12887,8.23447 -0.10235,16.47054 c 0.1319,2.4964 -0.10491,5.18259 0.18121,7.63404 -0.13329,0.90111 -0.25728,1.80674 -0.41569,2.7001 0.50502,1.95709 0.20494,14.51312 0.20331,17.38005 l -0.004,30.32924 c 0.001,1.95353 -0.23704,8.07861 0.009,9.50642 -13.46604,-0.0227 -27.167016,-0.52897 -40.490227,-3.51294 -3.125227,-0.64568 -9.705765,-2.00979 -11.884467,-5.04258 -0.23634,-0.32883 -0.436392,-0.7789 -0.384518,-1.26485 0.212148,-1.98619 6.682425,-7.61852 8.111864,-8.98329 6.222073,-7.01487 12.251306,-15.17464 16.999975,-24.17214 0.264487,0.23086 0.295192,0.23862 0.607832,0.22956 1.191005,-0.90144 2.196614,-3.25395 3.120574,-4.68402 6.931557,-10.72633 12.494857,-22.91215 17.203977,-35.72975 1.87862,-5.11307 3.64397,-10.17926 4.97524,-15.61987 z"
     id="path141"
     style="fill:url(#gradient_0);stroke-width:0.274247" />
  <defs
     id="defs143">
    <linearGradient
       id="gradient_1"
       gradientUnits="userSpaceOnUse"
       x1="380.27225"
       y1="590.39886"
       x2="369.1041"
       y2="785.7644"
       gradientTransform="matrix(0.23261826,0,0,0.32332567,-5.993913,-42.455954)">
      <stop
         offset="0"
         stop-color="#DE3443"
         id="stop142" />
      <stop
         offset="1"
         stop-color="#B92A4E"
         id="stop143" />
    </linearGradient>
  </defs>
  <path
     fill="url(#gradient_1)"
     d="m 107.54659,146.99413 c 0.1319,2.4964 -0.10491,5.18259 0.18121,7.63404 -0.13329,0.90111 -0.25728,1.80674 -0.41569,2.7001 -1.51411,5.27279 -2.59834,10.76189 -4.20923,15.98619 -4.46836,14.49048 -12.2064,26.17224 -22.693299,32.43635 -1.600181,0.95575 -3.25526,1.85912 -4.939881,2.47571 -1.880719,0.68869 -7.198373,1.38609 -8.439857,2.80452 -3.125226,-0.64568 -9.705764,-2.00979 -11.884466,-5.04258 -0.236341,-0.32883 -0.436392,-0.7789 -0.384518,-1.26485 0.212148,-1.98619 6.682425,-7.61852 8.111864,-8.98329 0.130731,0.32657 0.268209,0.56744 0.480589,0.7983 2.319669,2.5187 6.250453,2.61279 9.030474,2.13104 12.008224,-2.0819 24.121114,-21.07469 29.897724,-34.79437 q 1.32941,-3.17959 2.47622,-6.494 c 0.78044,-2.27201 1.45247,-5.34166 2.59765,-7.25348 0.0463,-0.0773 0.0949,-0.15165 0.14236,-0.22763 -0.008,-0.97548 0,-1.93251 0.0489,-2.90605 z"
     id="path143"
     style="fill:url(#gradient_1);stroke-width:0.274247" />
  <path
     fill="#393a72"
     d="m 107.31211,157.32827 c 0.50502,1.95709 0.20494,14.51312 0.20331,17.38005 l -0.004,30.32924 c 0.001,1.95353 -0.23704,8.07861 0.009,9.50642 -13.46604,-0.0227 -27.167016,-0.52897 -40.490227,-3.51294 1.241483,-1.41843 6.559137,-2.11583 8.439856,-2.80452 1.684621,-0.61659 3.3397,-1.51996 4.939881,-2.47571 10.4869,-6.26411 18.22494,-17.94587 22.6933,-32.43635 1.61089,-5.2243 2.69512,-10.7134 4.20923,-15.98619 z"
     id="path144"
     style="stroke-width:0.274247" />
  <defs
     id="defs145">
    <linearGradient
       id="gradient_2"
       gradientUnits="userSpaceOnUse"
       x1="589.66815"
       y1="803.48877"
       x2="621.70709"
       y2="478.99261"
       gradientTransform="matrix(0.23261826,0,0,0.32332567,-5.993913,-42.455954)">
      <stop
         offset="0"
         stop-color="#314D83"
         id="stop144" />
      <stop
         offset="1"
         stop-color="#2A8BCE"
         id="stop145" />
    </linearGradient>
  </defs>
  <path
     fill="url(#gradient_2)"
     d="m 113.72935,112.60392 c 0.27985,-1.05631 0.99375,-3.10716 1.62693,-3.75543 0.77834,2.61538 0.83418,5.68989 1.20776,8.45595 0.38568,2.85625 0.99211,5.74937 1.60902,8.52609 q 0.4129,1.86752 0.86208,3.71857 0.44919,1.85104 0.93466,3.68461 0.48524,1.83326 1.00608,3.64777 0.52106,1.8145 1.07725,3.60863 0.55619,1.79413 1.14728,3.56661 0.59108,1.77246 1.21659,3.52198 0.62574,1.74952 1.28522,3.47447 0.65947,1.72525 1.35244,3.42499 0.69297,1.69939 1.41897,3.37227 0.726,1.6729 1.48457,3.31765 0.75834,1.64476 1.54877,3.2601 0.7902,1.61566 1.61181,3.20059 0.82161,1.58528 1.67392,3.13852 0.85232,1.5536 1.73464,3.07419 0.88255,1.5206 1.79419,3.00757 0.91185,1.48666 1.85233,2.93838 c 3.7077,5.74454 7.76247,10.94069 12.04451,15.8517 q 1.48992,1.69682 3.07172,3.22452 c 1.17682,1.13358 3.89613,3.07967 4.6447,4.53821 0.32031,0.62401 0.45662,1.47049 0.23168,2.18987 -0.45268,1.44754 -2.43017,2.28624 -3.44182,2.70398 -7.4696,3.0842 -15.89876,4.20646 -23.67123,5.0041 q -12.74888,1.33082 -25.53335,1.24417 c -0.24611,-1.42781 -0.008,-7.55289 -0.009,-9.50642 l 0.004,-30.32924 c 0.001,-2.86693 0.30171,-15.42296 -0.20331,-17.38005 0.15841,-0.89336 0.2824,-1.79899 0.41569,-2.7001 -0.28612,-2.45145 -0.0493,-5.13764 -0.1812,-7.63404 q -0.0265,-8.2364 0.10234,-16.47054 c 0.0258,-2.41135 0.15051,-4.87703 0.0884,-7.28355 -0.056,-2.16919 -0.96327,-4.30216 -0.94722,-6.28513 0.19773,-0.17427 0.40452,-0.35048 0.58247,-0.56258 0.55131,-0.657 0.50874,-1.66578 0.51851,-2.58047 0.0968,1.12744 0.21541,1.57072 0.78974,2.40491 1.88002,-0.59395 3.15058,-2.39455 4.77309,-3.68301 l 0.13213,-0.1028 z"
     id="path145"
     style="fill:url(#gradient_2);stroke-width:0.274247" />
  <path
     fill="#393a72"
     d="m 113.58606,112.43094 0.14329,0.17298 c -0.76252,10.17183 -2.95122,33.43026 -6.00155,42.02425 -0.28612,-2.45145 -0.0493,-5.13764 -0.18121,-7.63404 q -0.0265,-8.2364 0.10235,-16.47054 c 0.0258,-2.41135 0.15051,-4.87703 0.0884,-7.28355 -0.056,-2.16919 -0.96327,-4.30216 -0.94722,-6.28513 0.19772,-0.17427 0.40452,-0.35048 0.58247,-0.56258 0.55131,-0.657 0.50874,-1.66578 0.51851,-2.58047 0.0968,1.12744 0.21541,1.57072 0.78974,2.40491 1.88002,-0.59395 3.15058,-2.39455 4.77309,-3.68301 z"
     id="path146"
     style="stroke-width:0.274247" />
  <text
     xml:space="preserve"
     style="font-size:32px;font-family:'Nunito Sans 7pt';-inkscape-font-specification:'Nunito Sans 7pt, Normal';text-align:center;text-anchor:middle;fill:#bd2f4d;stroke-width:0.971059;fill-opacity:1"
     x="45.805775"
     y="121.95063"
     id="text146"
     transform="scale(0.99694079,1.0030686)"><tspan
       sodipodi:role="line"
       id="tspan146"
       x="45.805775"
       y="121.95063"
       style="font-style:normal;font-variant:normal;font-weight:normal;font-stretch:normal;font-size:32px;font-family:Jura;-inkscape-font-specification:'Jura, Normal';font-variant-ligatures:normal;font-variant-caps:normal;font-variant-numeric:normal;font-variant-east-asian:normal;stroke-width:0.971059;fill:#bd2f4d;fill-opacity:1">Vivid</tspan></text>
  <text
     xml:space="preserve"
     style="font-size:32px;font-family:'Nunito Sans 7pt';-inkscape-font-specification:'Nunito Sans 7pt, Normal';text-align:center;text-anchor:middle;fill:#157ae3;stroke-width:0.971059;fill-opacity:0.9254902"
     x="183.22633"
     y="121.93289"
     id="text146-2"
     transform="scale(0.99694079,1.0030686)"><tspan
       sodipodi:role="line"
       id="tspan146-8"
       x="183.22633"
       y="121.93289"
       style="font-style:normal;font-variant:normal;font-weight:normal;font-stretch:normal;font-size:32px;font-family:Jura;-inkscape-font-specification:'Jura, Normal';font-variant-ligatures:normal;font-variant-caps:normal;font-variant-numeric:normal;font-variant-east-asian:normal;stroke-width:0.971059;fill:#157ae3;fill-opacity:0.9254902">Volcano</tspan></text>
</svg>
